<svg width="37" height="37" viewBox="0 0 37 37" fill="none" xmlns="http://www.w3.org/2000/svg">
<path d="M30.848 4.53066H27.248V2.73066C27.248 2.25327 27.0584 1.79544 26.7208 1.45787C26.3833 1.12031 25.9254 0.930664 25.448 0.930664C24.9707 0.930664 24.5128 1.12031 24.1753 1.45787C23.8377 1.79544 23.648 2.25327 23.648 2.73066V4.53066H12.848V2.73066C12.848 2.25327 12.6584 1.79544 12.3208 1.45787C11.9833 1.12031 11.5254 0.930664 11.048 0.930664C10.5707 0.930664 10.1128 1.12031 9.77526 1.45787C9.43769 1.79544 9.24805 2.25327 9.24805 2.73066V4.53066H5.64805C4.21588 4.53066 2.84237 5.09959 1.82967 6.11229C0.816974 7.12498 0.248047 8.4985 0.248047 9.93066V31.5307C0.248047 32.9628 0.816974 34.3363 1.82967 35.349C2.84237 36.3617 4.21588 36.9307 5.64805 36.9307H30.848C32.2802 36.9307 33.6537 36.3617 34.6664 35.349C35.6791 34.3363 36.248 32.9628 36.248 31.5307V9.93066C36.248 8.4985 35.6791 7.12498 34.6664 6.11229C33.6537 5.09959 32.2802 4.53066 30.848 4.53066ZM32.648 31.5307C32.648 32.0081 32.4584 32.4659 32.1208 32.8035C31.7833 33.141 31.3254 33.3307 30.848 33.3307H5.64805C5.17066 33.3307 4.71282 33.141 4.37526 32.8035C4.03769 32.4659 3.84805 32.0081 3.84805 31.5307V18.9307H32.648V31.5307ZM32.648 15.3307H3.84805V9.93066C3.84805 9.45327 4.03769 8.99544 4.37526 8.65787C4.71282 8.32031 5.17066 8.13066 5.64805 8.13066H9.24805V9.93066C9.24805 10.4081 9.43769 10.8659 9.77526 11.2035C10.1128 11.541 10.5707 11.7307 11.048 11.7307C11.5254 11.7307 11.9833 11.541 12.3208 11.2035C12.6584 10.8659 12.848 10.4081 12.848 9.93066V8.13066H23.648V9.93066C23.648 10.4081 23.8377 10.8659 24.1753 11.2035C24.5128 11.541 24.9707 11.7307 25.448 11.7307C25.9254 11.7307 26.3833 11.541 26.7208 11.2035C27.0584 10.8659 27.248 10.4081 27.248 9.93066V8.13066H30.848C31.3254 8.13066 31.7833 8.32031 32.1208 8.65787C32.4584 8.99544 32.648 9.45327 32.648 9.93066V15.3307Z" fill="white"/>
</svg>
