<svg width="35" height="44" viewBox="0 0 35 44" fill="none" xmlns="http://www.w3.org/2000/svg">
<g opacity="0.5">
<path d="M2.60897 33.0451C3.67619 30.0493 4.66732 27.0808 4.84026 23.9609C4.85569 23.6825 4.87545 23.4757 4.64591 23.2498C4.35871 22.967 4.03736 22.7134 3.77216 22.4155C3.29671 21.8814 2.93124 21.2884 2.73281 20.6581C2.62824 20.3259 2.56958 19.9858 2.58438 19.6437C2.59248 19.4565 2.63355 19.2806 2.67141 19.0965C2.71918 18.8642 2.63369 18.704 2.53613 18.485C2.22234 17.7807 2.03464 17.0463 1.94772 16.3054C1.74367 14.5661 2.06586 12.8432 2.558 11.1487C1.86651 10.3419 1.28312 9.49153 0.816528 8.57156C1.89442 7.72331 3.22986 7.42903 4.8274 7.44844C4.2509 7.06958 3.64477 6.87022 2.95418 6.69825C4.40354 6.00492 5.87626 5.45497 7.46647 4.96866C7.25904 5.53658 7.09205 6.07445 7.04889 6.65998C7.44317 6.38202 7.65064 5.84466 7.94163 5.49652C8.24992 5.12769 8.59748 4.77768 8.9914 4.46031C9.79683 3.81142 10.7569 3.32963 11.9579 3.32048C11.296 3.83968 10.7462 4.36123 10.3387 4.98939C10.6346 4.96658 10.9546 4.73209 11.2149 4.62352C11.5707 4.4751 11.9375 4.34209 12.3115 4.22311C13.056 3.98629 13.8299 3.80687 14.6151 3.6696C16.2679 3.38069 17.9573 3.29618 19.6423 3.19332C22.5456 3.0161 26.0877 2.80741 27.7044 0.643555C27.9908 2.40593 26.61 4.03396 24.9333 5.12294C23.9993 5.72954 22.9616 6.24183 21.8857 6.68589C21.3398 6.9112 20.7818 7.1188 20.2161 7.31312C19.7203 7.48345 19.0702 7.59816 18.6371 7.84691C19.8838 7.73099 21.1745 7.32273 22.318 6.93838C23.4871 6.54541 24.6023 6.05635 25.6149 5.45831C27.5231 4.33144 29.0005 2.83686 29.5886 1.02395C31.2302 3.76167 31.2281 6.98897 28.8316 9.45961C29.4263 9.18281 29.8497 8.62942 30.189 8.18121C30.6329 7.59477 30.9698 6.96447 31.1981 6.30911C31.6874 4.90439 31.6858 3.35108 31.2895 1.93319C34.1255 4.43822 35.1246 8.90327 31.5979 12.0577C32.3558 13.3674 32.8201 14.7425 33.0228 16.166C33.1164 16.8234 33.3047 17.5606 33.2253 18.2218C33.1491 18.8559 32.683 19.4021 32.3209 19.9576C32.222 19.5839 32.3116 19.2761 32.2614 18.952C31.8227 18.9783 31.4325 19.1152 30.9317 19.2038C31.6131 19.4279 31.9353 19.8329 32.274 20.3031C31.7101 20.2028 31.2148 20.1148 30.6619 20.0165C31.5051 21.2544 32.442 22.4915 33.0368 23.8173C33.29 24.3816 33.3177 25.0731 32.8419 25.5774C32.6705 25.759 32.4394 25.9021 32.1747 25.9959C32.0151 26.0524 31.845 26.0899 31.672 26.1125C31.5424 26.1295 31.2727 26.0959 31.1768 26.1795C33.5927 27.5542 34.8517 29.8206 34.7279 32.1108C33.9748 31.5993 33.2623 31.1437 32.4409 30.7159C35.6124 34.8464 34.9869 38.8094 31.785 42.6848C31.6742 41.8228 31.6495 40.9569 31.359 40.1148C31.16 41.1309 30.9834 42.1462 30.9098 43.2177C29.1596 42.4442 28.0495 41.0783 27.6689 39.573C27.484 40.1015 27.5152 41.0768 28.1027 42.2071C24.1135 40.6261 19.7715 38.5836 19.3015 34.8148C18.9662 35.397 19.2112 36.2895 19.3265 36.8874C19.5036 37.8061 19.918 38.6578 20.4172 39.4996C18.5797 38.4981 16.7977 37.3156 15.536 35.8675C14.9206 35.1612 14.4541 34.3899 14.1886 33.5634C13.9039 32.6771 13.9725 31.8115 13.8754 30.914C13.2105 32.3876 13.6087 34.0375 14.3127 35.4532C13.2935 34.7258 12.3501 33.9282 11.6394 33.0037C10.9031 32.0458 10.5571 31.0153 10.4514 29.9109C10.2091 27.3798 10.9249 24.8573 10.9788 22.3295C10.9916 21.7269 10.9695 21.1237 10.9086 20.5228C10.8493 19.9368 10.8217 19.2824 10.5739 18.7223C10.1956 17.8669 9.13517 17.19 8.02865 16.9353C5.50856 16.3553 3.66644 18.0935 3.82329 19.9282C3.92528 21.1212 4.88419 22.1801 6.00678 22.9618C6.56191 23.3483 7.21186 23.7327 7.89801 23.9713C8.71839 24.2566 9.50501 23.9798 10.311 23.7986C10.311 24.1177 10.311 24.4076 10.311 24.6998C8.80279 25.3439 7.44484 24.9796 6.11368 24.2586C5.98523 25.9886 5.70641 27.6902 5.20582 29.3809C4.96461 30.1955 4.72945 31.0298 4.3926 31.8247C4.10359 32.5068 3.36276 32.708 2.60897 33.0451ZM20.0999 10.9127C22.0839 10.5193 23.9077 9.92052 25.5574 9.02133C27.0664 8.19879 28.3077 7.19689 29.0585 5.87482C29.1396 5.73204 29.212 5.58584 29.2763 5.43811C29.3396 5.29277 29.3876 5.14346 29.4706 4.91925C29.3761 5.00817 29.3476 5.02705 29.3318 5.05089C28.4308 6.4143 27.0856 7.46791 25.446 8.30694C23.1374 9.48826 20.5914 10.2662 17.9388 10.881C17.4975 10.6666 17.0593 10.4432 16.6076 10.2373C16.166 10.0361 15.7162 9.84468 15.26 9.66384C14.7932 9.47884 14.322 9.29818 13.8387 9.14097C13.356 8.98392 12.8574 8.85502 12.363 8.71977C11.8792 8.58743 11.3834 8.48459 10.8799 8.40911C10.3783 8.33392 9.87839 8.23632 9.35891 8.25934C9.42873 8.306 9.50348 8.32996 9.58055 8.34811C12.3261 8.99466 14.7093 10.1228 16.8472 11.5772C16.9544 11.6502 17.0646 11.7128 17.0716 11.8426C17.105 12.4666 17.1472 13.0903 17.1867 13.7205C15.8964 14.5033 14.6126 15.2845 13.3238 16.0608C13.1847 16.1446 13.0837 16.2259 13.0673 16.3705C12.9535 17.3701 12.8537 18.37 12.8797 19.3744C12.883 19.501 12.9178 19.6306 12.9651 19.7526C13.6642 21.5548 14.0235 23.3914 13.925 25.2754C13.9223 25.3265 13.8801 25.3923 13.9784 25.429C14.2204 24.6533 14.2521 23.8575 14.3727 23.0661C14.9792 23.9219 15.4372 24.8179 15.8618 25.7226C16.2801 26.6139 16.6553 27.5171 17.0495 28.4151C17.067 28.4118 17.0845 28.4085 17.102 28.4052C16.9713 27.5676 16.8405 26.73 16.7098 25.8924C18.3506 27.2249 19.9965 28.4997 22.0589 29.4433C23.1844 27.9071 24.7194 26.7246 26.8022 25.9808C25.9752 25.4353 25.7359 24.9889 26.0074 24.5316C26.225 24.1651 26.8258 23.9013 27.3401 23.9516C27.0784 24.2123 26.8037 24.4856 27.0343 24.8251C27.2687 25.1702 27.7006 25.273 28.1878 25.2702C29.1934 25.2644 30.1992 25.271 31.2047 25.2588C31.6927 25.253 31.9402 25.0467 31.9792 24.6746C32.0069 24.4095 31.9158 24.1665 31.7877 23.9254C31.1498 22.7248 30.3726 21.5763 29.5788 20.4342C29.3038 20.0384 29.2574 19.6618 29.5875 19.2664C29.7405 19.0831 29.8519 18.8739 29.9401 18.6658C30.0193 18.4791 30.1493 18.383 30.3992 18.3326C30.9489 18.2216 31.4897 18.0844 32.0196 17.9613C32.0881 16.4654 31.3438 13.7083 30.5773 12.6055C27.0958 12.043 23.5979 11.4778 20.0999 10.9127ZM29.8837 29.5047C30.3151 29.8966 30.648 30.3266 31.0168 30.7407C30.7197 30.0139 30.3516 29.3129 29.8534 28.6402C29.5072 28.5811 29.1599 28.5218 28.897 28.4769C27.135 29.0398 26.4118 30.1645 25.9015 31.4149C26.6197 30.7804 27.3061 30.1252 28.0532 29.509C28.6742 29.644 29.2771 29.6217 29.8837 29.5047ZM21.5455 3.9974C19.4679 5.1191 17.1658 5.88979 14.9219 6.84462C17.4194 6.83673 20.9264 5.3232 21.5455 3.9974Z" fill="white"/>
<path d="M8.73853 19.7208C8.35946 19.263 6.99125 17.925 6.13552 18.4778C5.69723 18.7609 5.63113 19.4342 5.57306 19.8352C5.5315 20.1221 5.51914 20.4105 5.52569 20.6991C5.53191 20.973 5.6244 21.2913 5.57272 21.5606C4.67478 20.9501 4.25098 19.7672 4.57208 18.8846C4.94042 17.8721 6.32724 17.3504 7.59711 17.7251C8.26025 17.9208 8.89092 18.3359 9.14299 18.857C9.42087 19.4316 8.94765 20.0489 8.72283 20.5928C8.61306 20.8584 8.48587 21.1214 8.5694 21.4034C8.65925 21.7069 8.96054 21.8712 9.16063 22.1241C9.61832 22.7027 8.80179 22.7901 8.26275 22.5976C7.56848 22.3498 6.9843 21.7825 7.0412 21.1715C7.10746 20.4598 8.07584 20.0933 8.73853 19.7208Z" fill="white"/>
<path d="M19.2835 18.9835C19.7317 18.5445 20.1684 18.1822 20.6817 17.8768C21.5494 17.3607 22.5181 17.1712 23.5828 17.3955C24.9728 17.6883 26.3533 18.0078 27.7695 18.3229C27.7116 18.5934 27.6564 18.8509 27.5911 19.1558C27.2561 18.836 26.8161 18.8825 26.4153 18.83C25.3685 18.693 24.3175 18.5756 23.2882 18.3647C22.5702 18.2176 21.8629 18.3197 21.1724 18.4906C20.5627 18.6415 19.959 18.8066 19.2835 18.9835Z" fill="white"/>
<path d="M25.9923 20.1973C25.284 19.6994 24.3666 19.9027 23.4969 19.8736C22.3967 19.8369 21.2854 19.8474 20.2049 20.0285C21.1395 19.3882 22.3064 19.003 23.5605 18.9581C24.7509 18.9154 25.8108 19.1985 25.9923 20.1973Z" fill="white"/>
</g>
</svg>
