<svg width="54" height="54" viewBox="0 0 54 54" fill="none" xmlns="http://www.w3.org/2000/svg">
<g clip-path="url(#clip0_808_806)">
<path d="M42.7499 31.5015C40.898 31.5137 39.0787 31.9894 37.4579 32.8852L29.9249 23.8515L46.7256 3.69149C47.0907 3.23135 47.2614 2.64668 47.2012 2.06239C47.141 1.4781 46.8547 0.940511 46.4035 0.564476C45.9522 0.188441 45.3718 0.0037753 44.7863 0.0499307C44.2007 0.0960861 43.6564 0.369402 43.2696 0.81149L26.9999 20.337L10.7279 0.81149C10.3411 0.369402 9.79682 0.0960861 9.21125 0.0499307C8.62568 0.0037753 8.04528 0.188441 7.59404 0.564476C7.1428 0.940511 6.85649 1.4781 6.7963 2.06239C6.7361 2.64668 6.90679 3.23135 7.27188 3.69149L24.0749 23.8515L16.5419 32.8852C14.9207 31.9905 13.1016 31.5148 11.2499 31.5015C9.02484 31.5015 6.84977 32.1613 4.99972 33.3975C3.14966 34.6336 1.70772 36.3906 0.856238 38.4463C0.00475238 40.502 -0.218035 42.764 0.216049 44.9463C0.650132 47.1285 1.72159 49.1331 3.29493 50.7064C4.86827 52.2798 6.87283 53.3512 9.05512 53.7853C11.2374 54.2194 13.4994 53.9966 15.5551 53.1451C17.6107 52.2937 19.3677 50.8517 20.6039 49.0017C21.8401 47.1516 22.4999 44.9765 22.4999 42.7515C22.487 40.209 21.604 37.7475 19.9979 35.7765L26.9999 27.366L33.9996 35.7765C32.3956 37.7485 31.5136 40.2095 31.4999 42.7515C31.4999 44.9765 32.1597 47.1516 33.3959 49.0017C34.632 50.8517 36.389 52.2937 38.4447 53.1451C40.5004 53.9966 42.7624 54.2194 44.9446 53.7853C47.1269 53.3512 49.1315 52.2798 50.7048 50.7064C52.2782 49.1331 53.3496 47.1285 53.7837 44.9463C54.2178 42.764 53.995 40.502 53.1435 38.4463C52.292 36.3906 50.8501 34.6336 49 33.3975C47.15 32.1613 44.9749 31.5015 42.7499 31.5015ZM11.2499 49.5015C9.91486 49.5015 8.60982 49.1056 7.49978 48.3639C6.38975 47.6222 5.52459 46.568 5.0137 45.3346C4.5028 44.1012 4.36913 42.744 4.62958 41.4346C4.89003 40.1253 5.53291 38.9225 6.47691 37.9785C7.42092 37.0345 8.62365 36.3916 9.93302 36.1312C11.2424 35.8707 12.5996 36.0044 13.833 36.5153C15.0664 37.0262 16.1206 37.8914 16.8623 39.0014C17.604 40.1114 17.9999 41.4165 17.9999 42.7515C17.9999 44.5417 17.2887 46.2586 16.0229 47.5245C14.757 48.7903 13.0401 49.5015 11.2499 49.5015ZM42.7499 49.5015C41.4149 49.5015 40.1098 49.1056 38.9998 48.3639C37.8898 47.6222 37.0246 46.568 36.5137 45.3346C36.0028 44.1012 35.8691 42.744 36.1296 41.4346C36.39 40.1253 37.0329 38.9225 37.9769 37.9785C38.9209 37.0345 40.1236 36.3916 41.433 36.1312C42.7424 35.8707 44.0996 36.0044 45.333 36.5153C46.5664 37.0262 47.6206 37.8914 48.3623 39.0014C49.104 40.1114 49.4999 41.4165 49.4999 42.7515C49.4999 44.5417 48.7887 46.2586 47.5229 47.5245C46.257 48.7903 44.5401 49.5015 42.7499 49.5015Z" fill="#0D98B9"/>
</g>
<defs>
<clipPath id="clip0_808_806">
<rect width="54" height="54" fill="white"/>
</clipPath>
</defs>
</svg>
