<svg width="32" height="37" viewBox="0 0 32 37" fill="none" xmlns="http://www.w3.org/2000/svg">
<g opacity="0.5">
<path d="M19.3162 5.11178C19.3162 7.42042 17.7664 9.29289 15.8539 9.29289C13.9414 9.29289 12.3901 7.42037 12.3901 5.11178C12.3901 2.80146 13.9414 0.930664 15.8539 0.930664C17.7664 0.930664 19.3162 2.80146 19.3162 5.11178Z" fill="white"/>
<path d="M17.9535 13.7333C17.9535 13.7333 18.5435 13.5178 18.8371 13.3881C18.7637 12.9133 18.4327 11.1031 18.3579 10.7158C18.247 10.7158 18.2111 10.7158 18.1003 10.672C17.9895 11.1469 16.7734 16.4058 16.3691 18.2159C17.1793 17.2679 18.2845 16.0167 18.5061 15.8012C18.3219 15.456 17.7693 14.2924 17.7693 14.2924C17.5851 14.0785 17.7319 13.7755 17.9535 13.7333Z" fill="white"/>
<path d="M17.5118 10.4563C16.9592 10.3704 16.3692 10.3704 15.7806 10.3704C15.1906 10.3704 14.6021 10.3704 14.0495 10.4563L15.7806 18.0859L17.5118 10.4563Z" fill="white"/>
<path d="M12.5009 16.0603C12.4275 15.9744 12.3901 15.673 12.4275 15.6292C12.4275 15.6292 12.8693 14.7233 13.0909 14.2501C12.7585 14.1204 12.3167 13.9487 12.3167 13.9487C12.0951 13.9049 12.0591 13.819 12.0951 13.5176L12.6102 10.5859C10.9899 11.0608 9.51627 11.965 8.63116 13.5176C7.48854 15.5013 5.83075 18.2155 5.83075 18.2155C5.83075 18.2155 4.61475 15.8884 3.6578 14.2499C2.66342 12.4818 1.63161 12.6553 0.89482 13.2581C-0.0261735 13.9485 -0.0261735 15.4994 0.453038 16.3615C1.5208 18.431 3.21602 21.6642 4.09958 22.9574C4.83638 24.0789 6.71579 24.0789 7.52597 22.9137C8.66859 21.2752 9.92055 18.7326 9.92055 18.7746L9.95797 29.8969H13.4952V30.6294H9.95797V36.924H15.4106V19.5093L12.5009 16.0603Z" fill="white"/>
<path d="M31.8042 19.2934C31.7667 19.1216 31.5466 18.3016 31.1408 16.7928C31.8775 15.3278 31.6933 14.1204 30.6615 13.3442C30.4399 13.1724 30.2557 13.0427 30.0715 12.999C28.8929 8.73197 27.4927 3.86053 27.4553 3.73078C27.3085 3.2997 26.8653 3.34348 26.8653 3.34348C26.8653 3.34348 24.9859 4.07597 24.8765 4.11977C24.7657 4.16355 24.7657 4.37909 24.9139 4.3353C25.2823 4.20565 26.4983 3.73248 26.4983 3.73248L26.6825 4.3353L25.0981 4.93812C25.0607 4.93812 25.0247 5.024 25.0607 5.06778C25.0607 5.11156 25.1341 5.15366 25.1715 5.11156L26.7559 4.50874L26.9401 5.11156L25.3557 5.71438C25.3183 5.71438 25.2823 5.80026 25.3183 5.84404C25.3183 5.88782 25.3917 5.92992 25.4291 5.88782L27.0135 5.285L27.1977 5.88782L25.6133 6.49064C25.5788 6.49064 25.5414 6.57652 25.5788 6.6203C25.5788 6.66408 25.6522 6.70618 25.6896 6.66408L27.274 6.06126L27.4582 6.66408L25.8738 7.2669C25.8364 7.2669 25.8004 7.35278 25.8364 7.39656C25.8364 7.44034 25.9098 7.48244 25.9472 7.44034L27.5316 6.83752L27.7158 7.44034L26.1314 8.04316C26.094 8.04316 26.058 8.12904 26.094 8.17282C26.094 8.2166 26.1674 8.2587 26.2048 8.2166L27.7892 7.61378L27.9734 8.2166L26.389 8.81942C26.3516 8.81942 26.3156 8.9053 26.3516 8.94908C26.3516 8.99286 26.4249 9.03496 26.4624 8.99286L28.0468 8.39004L28.231 8.99286L26.6466 9.59568C26.6091 9.59568 26.5732 9.68156 26.6091 9.72534C26.6091 9.76912 26.6825 9.81122 26.7199 9.76912L28.3044 9.1663L28.4886 9.76912C28.4886 9.76912 27.0524 10.3299 26.9041 10.4157C26.7574 10.4595 26.8308 10.6313 26.9775 10.6313C27.2351 10.6313 28.4137 10.6751 28.4137 10.6751C28.4137 10.6751 28.7447 10.6751 28.9289 11.0203C29.0397 11.3655 29.2599 12.0542 29.5923 12.9601C29.0397 13.1757 28.5979 13.7785 28.2655 14.2971C27.3445 15.9356 26.0176 18.2206 26.0176 18.2206C26.0176 18.2206 24.8391 16.237 23.2172 13.5228C22.2229 11.8843 20.4917 11.066 18.9431 10.6349L19.4583 13.4807C19.4957 13.6524 19.3849 13.868 19.2366 13.9118C19.2366 13.9118 18.7949 14.0835 18.4624 14.2132C18.684 14.6881 19.1258 15.5923 19.1258 15.5923C19.1992 15.7219 19.1258 15.9375 19.0524 16.0234L16.0319 19.472V36.9307H21.742L21.7478 30.6748H18.1746V29.9424H21.7478V18.7343C21.7478 18.6905 23.2214 21.1491 24.2532 22.8734C25.2116 24.4259 26.7212 24.3383 27.4954 23.1327C28.2696 21.9253 29.8525 19.1233 30.9577 17.0536C31.3261 18.1313 31.6211 19.0373 31.7319 19.2949C31.5837 19.7681 31.879 19.6386 31.8042 19.2934Z" fill="white"/>
<path d="M13.0535 15.8448C13.2751 16.1041 14.3803 17.3536 15.1905 18.2595C14.7847 16.4493 13.5701 11.2325 13.4593 10.7156C13.3485 10.7156 13.3125 10.7594 13.2017 10.7594C13.1283 11.1467 12.7959 12.9586 12.7225 13.4318C13.0161 13.5597 13.6061 13.7753 13.6061 13.7753C13.8277 13.8612 13.9011 14.1626 13.7903 14.2922C13.7903 14.336 13.2003 15.4996 13.0535 15.8448Z" fill="white"/>
<path d="M6.56894 2.69689C6.64233 2.48135 6.23795 2.13614 6.12715 2.48135C6.01635 2.78277 3.54837 8.77596 3.36417 9.20703L2.07478 10.6299C1.928 10.5441 1.7438 10.4582 1.55962 10.4582C1.04445 10.4582 0.601195 10.9751 0.601195 11.5797C0.601195 12.1825 1.04298 12.7012 1.55962 12.7012C2.07478 12.7012 2.51804 12.1842 2.51804 11.5797C2.51804 11.3204 2.44465 11.1048 2.33384 10.9331L3.5858 9.51015L3.80742 9.72569L3.84483 11.6655C3.439 11.7952 3.10804 12.2263 3.10804 12.7432C3.10804 13.2181 3.36563 13.6054 3.69806 13.7771C3.69806 14.2941 3.95565 14.769 4.43485 14.9845C4.54566 15.0283 4.65647 14.9845 4.69245 14.8548C4.72986 14.7252 4.69244 14.5955 4.58164 14.5534C4.13986 14.3379 4.06647 14.0785 4.06647 13.863C4.58164 13.863 5.02489 13.3461 5.02489 12.7415C5.02489 12.1808 4.6565 11.7076 4.17729 11.62L4.2147 9.80984C4.58022 8.69003 6.49555 2.91243 6.56894 2.69689ZM1.59557 12.2664C1.26459 12.2664 1.00555 11.965 1.00555 11.576C1.00555 11.1887 1.26314 10.8856 1.59557 10.8856C1.92656 10.8856 2.1856 11.187 2.1856 11.576C2.1856 11.965 1.92801 12.2664 1.59557 12.2664ZM4.65356 12.7413C4.65356 13.1286 4.39597 13.4317 4.06354 13.4317C3.73256 13.4317 3.47495 13.1286 3.47495 12.7413C3.47495 12.354 3.73254 12.0509 4.06498 12.0509C4.39596 12.0509 4.65356 12.354 4.65356 12.7413Z" fill="white"/>
</g>
</svg>
