<svg width="213" height="151" viewBox="0 0 213 151" fill="none" xmlns="http://www.w3.org/2000/svg">
<path d="M128.122 150.714L127.079 126.062C134.114 125.758 141.084 124.835 147.764 123.21L147.875 123.658L148.639 126.79L151.382 138.03L152.255 141.609C150.951 141.92 149.643 142.22 148.33 142.492C145.401 143.099 142.452 143.591 139.5 143.982C138.344 144.123 137.186 144.277 136.029 144.385L135.535 144.438L134.702 136.109L134.335 132.442C135.534 132.324 136.734 132.181 137.929 132.027C139.543 131.806 141.157 131.575 142.758 131.284L143.4 134.914C141.746 135.215 140.079 135.457 138.409 135.682L139.019 140.329C141.887 139.949 144.747 139.473 147.583 138.885L145.235 127.555C140.487 128.536 135.645 129.185 130.763 129.539L132 146.795C140.234 146.196 148.467 144.875 156.539 142.599L150.851 122.391C151.938 122.085 153.014 121.761 154.077 121.419L160.55 141.386L160.565 141.434C168.571 138.828 176.421 135.262 183.637 130.291L173.814 116.047C170.059 118.645 165.901 120.83 161.537 122.65L165.984 133.328C168.68 132.205 171.328 130.957 173.907 129.546L171.66 125.435C170.188 126.223 168.703 126.995 167.178 127.688L165.627 124.343C167.083 123.682 168.494 122.947 169.895 122.201C170.919 121.636 171.932 121.051 172.924 120.439L174.857 123.579L179.244 130.703L178.804 130.976C177.769 131.598 176.723 132.202 175.668 132.777C172.973 134.255 170.205 135.559 167.401 136.731C166.146 137.256 164.881 137.749 163.609 138.215L162.338 134.756L158.35 123.895L157.235 120.866L157.076 120.433C163.393 118.113 169.292 115.04 174.175 111.203L189.381 130.639L188.932 130.992C187.878 131.801 186.81 132.578 185.727 133.324C176.883 139.395 167.273 143.449 157.552 146.198L157.539 146.145C149.194 148.498 140.722 149.857 132.267 150.473C131.056 150.561 129.848 150.635 128.637 150.689L128.122 150.714ZM119.531 150.873C120.734 150.899 121.942 150.888 123.15 150.891L123.669 150.883L123.386 126.208C116.316 126.291 109.198 125.756 102.155 124.66L102.084 125.113L101.589 128.302L99.8148 139.738L99.2489 143.378C100.554 143.583 101.862 143.764 103.173 143.939C106.102 144.314 109.041 144.604 111.991 144.808L115.458 145.011L115.954 145.034L116.306 136.673L116.462 132.99C115.251 132.928 114.037 132.874 112.827 132.784C111.187 132.675 109.546 132.526 107.912 132.355L107.526 136.02C109.205 136.197 110.887 136.349 112.572 136.459L112.248 141.135C109.373 140.934 106.503 140.652 103.646 140.286L105.124 128.809C110.03 129.433 114.962 129.814 119.886 129.887L119.596 147.189C111.374 147.056 103.196 146.217 95.1461 144.768L95.1555 144.719L98.8843 124.065L97.1468 123.743L92.4415 148.019C101.337 149.724 110.401 150.725 119.531 150.873ZM193.562 127.043C194.556 126.126 195.531 125.182 196.479 124.201C203.106 117.373 208.508 108.498 210.866 98.6269L210.915 98.6363C211.123 97.8247 211.283 96.999 211.458 96.1811L187.184 91.4763C187.079 91.9082 187.005 92.3488 186.891 92.7767L207.284 97.7521C205.093 106.924 200.074 115.2 193.824 121.643L181.367 109.632C184.412 106.475 186.876 102.951 188.58 99.1611L199.135 103.902C197.883 106.651 196.385 109.287 194.635 111.722L190.815 109.011C191.761 107.668 192.645 106.285 193.431 104.849L190.202 103.073C189.488 104.383 188.678 105.644 187.81 106.874C187.174 107.783 186.478 108.666 185.76 109.526L188.584 111.892L194.997 117.272L195.339 116.857C196.143 115.891 196.905 114.889 197.639 113.859C199.518 111.237 201.139 108.389 202.495 105.415C203.082 104.073 203.641 102.716 204.105 101.318L200.618 100.127L189.67 96.3835L186.618 95.3396L186.18 95.1921C184.453 100.301 181.127 105.035 176.611 109.102L193.131 127.431L193.562 127.043ZM9.32615 96.1495C10.0029 97.289 10.6999 98.4108 11.4256 99.5092C16.5025 107.174 22.6871 113.654 29.3632 119.251L29.3296 119.288C37.1408 125.807 45.6593 131.124 54.5449 135.464C55.6351 135.998 56.728 136.518 57.829 137.02L58.302 137.237L68.4798 114.76C62.0657 111.846 55.943 108.385 50.3495 104.38L50.0797 104.754L48.2002 107.373L41.4563 116.777L39.3122 119.769C40.4057 120.547 41.5037 121.313 42.621 122.054C45.1148 123.714 47.6618 125.274 50.2586 126.738C51.2776 127.303 52.2953 127.876 53.3275 128.411L53.7709 128.643L57.655 121.231L59.3656 117.967C58.2925 117.408 57.2359 116.825 56.1825 116.238C54.7654 115.43 53.3557 114.608 51.9786 113.742L50.0271 116.87C51.4512 117.766 52.9088 118.614 54.3714 119.449L52.0693 123.529C49.5486 122.107 47.0765 120.596 44.6637 118.99L51.0745 109.355C55.1117 112.041 59.3656 114.454 63.7657 116.609L56.1682 132.154C48.7532 128.52 41.6076 124.216 34.9644 119.083L34.9961 119.043L47.8187 102.426C46.9273 101.736 46.0502 101.034 45.1929 100.317L31.7312 116.421C25.2828 111.015 19.3373 104.777 14.503 97.4754L28.9388 87.9306C31.4468 91.74 34.4857 95.3179 37.8498 98.6338L29.7349 106.879C27.6558 104.83 25.6651 102.685 23.8047 100.414L27.4228 97.4407C28.491 98.721 29.5809 99.9887 30.7344 101.201L33.4229 98.6782C32.3212 97.5214 31.2868 96.315 30.2686 95.0997C29.5297 94.1936 28.8079 93.2741 28.1185 92.3367L25.1532 94.5246L18.419 99.4954L18.7259 99.911C19.4535 100.875 20.1959 101.825 20.9594 102.753C22.9079 105.128 24.9877 107.372 27.1494 109.504C28.1169 110.459 29.1061 111.39 30.1123 112.295L32.5841 109.561L40.3407 100.979L42.5009 98.5872L42.813 98.2434C37.8248 93.7343 33.5048 88.6832 30.4106 83.3043L9.04428 95.6545L9.32615 96.1495ZM4.77598 87.0712C5.29131 88.3358 5.84174 89.5807 6.42121 90.8L6.67172 91.3203L28.8454 80.4909C26.1682 75.0219 24.8484 69.3781 25.1597 63.9853L24.7003 63.9589L21.4778 63.7867L9.9218 63.1664L6.24455 62.9687C6.15228 64.438 6.16521 65.9109 6.2068 67.3724C6.35184 70.6469 6.79325 73.8945 7.55927 77.0318C7.85524 78.2611 8.18959 79.4786 8.57109 80.6764L8.73167 81.1888L16.6916 78.5973L20.1955 77.4548C19.8514 76.387 19.5378 75.3106 19.2862 74.2247C18.9374 72.7589 18.6608 71.2807 18.488 69.8009L14.8275 70.2369C15.0192 71.8672 15.3217 73.4852 15.7023 75.0847L11.1454 76.1723C10.4303 73.2567 10.0269 70.2474 9.89036 67.2273L21.452 66.7753C21.6185 70.9323 22.5886 75.1271 24.235 79.1979L8.19267 85.6831C4.79978 77.3633 3.23479 67.8071 4.63087 58.4687L4.68047 58.4735L25.4552 61.4797C25.5096 61.0378 25.6057 60.6041 25.6693 60.164L1.39976 55.46C0.352124 60.8279 0.170193 66.3853 0.802069 71.7418C1.42339 77.1156 2.83436 82.2766 4.77598 87.0712ZM62.8935 139.161C64.0123 139.609 65.1261 140.071 66.2546 140.494C74.1251 143.516 82.2093 145.846 90.4056 147.548L90.3957 147.599L92.4382 148.011L97.143 123.737L95.4132 123.387L91.1555 143.939C83.1467 142.276 75.2514 140.002 67.5764 137.051L73.7737 120.895C78.3661 122.665 83.081 124.152 87.865 125.407L84.9482 136.606C82.1607 135.878 79.393 135.073 76.6517 134.18L78.0977 129.725C79.7021 130.25 81.3169 130.734 82.9395 131.202L83.9516 127.656C82.3722 127.201 80.7959 126.729 79.2351 126.215C78.0788 125.849 76.9343 125.447 75.7861 125.051L74.5567 128.526L71.7597 136.413L72.2286 136.576L75.5179 137.683C78.3302 138.594 81.1656 139.423 84.0219 140.169C85.3008 140.499 86.5792 140.819 87.8667 141.116L88.7044 137.527L91.3288 126.258L92.0603 123.118L92.1665 122.669C85.2222 121.051 78.422 118.889 71.9016 116.176L62.4225 138.959L62.8935 139.161ZM84.2132 0.955843C83.0051 1.00566 81.7972 1.07956 80.5889 1.16783C72.1311 1.7834 63.6589 3.14456 55.3125 5.49512L55.3006 5.44468C45.5777 8.19262 35.9673 12.2474 27.1241 18.3159C26.0411 19.0614 24.9754 19.8415 23.9215 20.6479L23.4723 21.0037L38.6754 40.4395C43.5634 36.6004 49.4601 33.5296 55.7749 31.2064L55.6157 30.7737L54.5033 27.7473L50.5152 16.8864L49.2437 13.4273C47.9718 13.8931 46.7066 14.3867 45.4518 14.9136C42.6454 16.083 39.8801 17.388 37.183 18.8626C36.1254 19.4397 35.0846 20.0418 34.0468 20.666L33.6068 20.9369L37.9939 28.0633L39.9271 31.2006C40.9191 30.5891 41.9317 30.0081 42.9584 29.4418C44.3573 28.6926 45.7703 27.9582 47.2245 27.2967L45.6728 23.9542C44.1503 24.6457 42.6652 25.4167 41.1933 26.2071L38.9462 22.0945C41.5228 20.6832 44.1735 19.4354 46.8676 18.3115L51.3165 28.9922C46.9521 30.8127 42.791 32.9998 39.039 35.5959L29.2165 21.3518C36.432 16.3804 44.2809 12.8096 52.2885 10.208L52.3032 10.2566L58.7738 30.2234C59.8369 29.8784 60.915 29.5555 61.9997 29.2484L56.3117 9.0434C64.3888 6.7658 72.6204 5.44221 80.8512 4.84281L82.0908 22.0992C77.2067 22.4544 72.3617 23.1037 67.6184 24.0854L65.2714 12.7533C68.1095 12.1651 70.9645 11.6885 73.834 11.311L74.445 15.956C72.7742 16.1832 71.1081 16.4234 69.4516 16.7256L70.0931 20.3562C71.6969 20.0654 73.3092 19.8292 74.9254 19.6106C76.1195 19.4594 77.3168 19.3161 78.5189 19.1978L78.1519 15.529L77.3184 7.20226L76.8248 7.25339C75.6648 7.36547 74.5097 7.51458 73.3531 7.6586C70.3999 8.04637 67.4523 8.54114 64.5216 9.14747C63.2102 9.42029 61.9035 9.71811 60.5987 10.0307L61.4716 13.6099L64.2147 24.8479L64.977 27.9797L65.0871 28.4294C71.7694 26.8055 78.7389 25.8847 85.7723 25.5778L84.7319 0.924032L84.2132 0.955843ZM93.3263 0.770514C92.1238 0.74199 90.9132 0.755213 89.7085 0.750332L89.1896 0.758052L89.4703 25.433C96.5393 25.352 103.657 25.887 110.703 26.9831L110.774 26.53L111.269 23.3411L113.042 11.9076L113.606 8.26522C112.301 8.06032 110.996 7.8795 109.684 7.70475C106.756 7.32972 103.816 7.0391 100.867 6.83563L97.3982 6.63016L96.9041 6.609L96.5517 14.9705L96.3938 18.6531C97.6072 18.7126 98.821 18.7698 100.031 18.8599C101.67 18.9683 103.309 19.1175 104.944 19.2875L105.332 15.6207C103.652 15.4468 101.969 15.2937 100.284 15.1814L100.608 10.5082C103.486 10.7074 106.354 10.9915 109.212 11.3577L107.734 22.834C102.827 22.2103 97.8958 21.8296 92.972 21.756L93.2597 4.45394C101.483 4.58712 109.662 5.4239 117.712 6.87351L117.702 6.92453L113.973 27.5784L115.709 27.9003L120.413 3.62848C111.52 1.91932 102.457 0.9159 93.3263 0.770514ZM19.2954 24.6003C18.3001 25.5144 17.3272 26.4617 16.379 27.4426C9.75178 34.2703 4.34931 43.1475 1.99127 53.0166L1.94301 53.0048C1.73427 53.8211 1.57655 54.6472 1.39886 55.4647L25.673 60.1695C25.7784 59.7375 25.8518 59.2969 25.966 58.8691L5.57295 53.8937C7.76695 44.722 12.7833 36.4462 19.0329 30.0025L31.4901 42.014C28.443 45.1703 25.9815 48.6951 24.2772 52.4846L13.7221 47.7436C14.9766 44.9955 16.4719 42.3591 18.2222 39.9213L22.0423 42.635C21.0963 43.9773 20.2098 45.3601 19.4233 46.7983L22.6554 48.5726C23.369 47.2623 24.1793 45.9995 25.0477 44.7721C25.684 43.8606 26.3765 42.9817 27.097 42.1203L24.2737 39.7514L17.8538 34.3727L17.5134 34.788C16.7125 35.7542 15.9479 36.7563 15.2159 37.7888C13.3342 40.4081 11.7132 43.2584 10.3576 46.23C9.77252 47.5725 9.21303 48.932 8.74825 50.3243L12.235 51.5175L23.1859 55.2596L26.2371 56.3034L26.6726 56.4527C28.3991 51.344 31.7255 46.6102 36.2443 42.5408L19.7222 24.2114L19.2954 24.6003ZM203.529 55.4935C202.852 54.354 202.155 53.2322 201.429 52.1361C196.355 44.4722 190.168 37.9885 183.492 32.3941L183.526 32.355C175.714 25.8379 167.198 20.5199 158.31 16.179C157.22 15.6452 156.127 15.1254 155.028 14.626L154.556 14.4068L144.375 36.8857C150.792 39.7971 156.912 43.2575 162.508 47.2636L162.778 46.8899L164.656 44.2674L171.399 34.868L173.546 31.8741C172.449 31.0985 171.352 30.3299 170.234 29.5887C167.743 27.9291 165.194 26.3689 162.597 24.9054C161.577 24.342 160.562 23.7675 159.528 23.2325L159.087 22.9979L155.202 30.4148L153.492 33.6785C154.563 34.2351 155.622 34.8182 156.672 35.4068C158.09 36.2157 159.502 37.0335 160.879 37.9019L162.83 34.7762C161.407 33.877 159.949 33.029 158.484 32.194L160.788 28.1141C163.307 29.5359 165.781 31.0478 168.192 32.6533L161.781 42.288C157.744 39.602 153.492 37.1897 149.092 35.0349L156.689 19.489C164.102 23.1228 171.248 27.4268 177.893 32.5627L177.861 32.6046L165.036 49.2214C165.927 49.9116 166.807 50.6138 167.662 51.3306L181.126 35.2276C187.574 40.6311 193.52 46.8683 198.354 54.1704L183.919 63.7129C181.411 59.9058 178.372 56.3279 175.005 53.0115L183.122 44.7664C185.199 46.8149 187.192 48.9627 189.053 51.2317L185.434 54.2051C184.364 52.9266 183.276 51.6571 182.121 50.444L179.432 52.9671C180.536 54.1267 181.568 55.3326 182.586 56.5479C183.328 57.4521 184.049 58.3717 184.736 59.3087L187.705 57.1189L194.436 52.1499L194.131 51.7347C193.404 50.7707 192.659 49.8202 191.896 48.8925C189.947 46.5175 187.869 44.2762 185.706 42.1411C184.738 41.1859 183.749 40.2553 182.745 39.3509L180.274 42.0821L172.517 50.6665L170.356 53.0609L170.044 53.4024C175.032 57.9115 179.352 62.9626 182.447 68.3415L203.81 55.9931L203.529 55.4935ZM208.082 64.5723C207.566 63.3076 207.014 62.0623 206.437 60.8411L206.186 60.3232L184.012 71.1525C186.69 76.6215 188.009 82.2654 187.698 87.6604L188.157 87.6846L191.38 87.8568L202.934 88.4742L206.614 88.6701C206.706 87.2031 206.695 85.7307 206.649 84.2659C206.506 80.9943 206.065 77.7466 205.297 74.6089C205.003 73.3777 204.669 72.1602 204.287 70.9647L204.124 70.4519L196.166 73.0461L192.663 74.1864C193.006 75.2565 193.32 76.3305 193.572 77.4164C193.921 78.8822 194.198 80.3581 194.373 81.8407L198.029 81.4015C197.839 79.774 197.536 78.156 197.156 76.5565L201.713 75.4688C202.427 78.3868 202.832 81.3914 202.968 84.4115L191.408 84.8686C191.24 80.7088 190.27 76.5117 188.623 72.4456L204.665 65.958C208.058 74.2778 209.623 83.834 208.23 93.1729L208.178 93.1653L187.403 90.1614C187.349 90.6033 187.253 91.0371 187.189 91.4772L211.465 96.1825C212.511 90.8141 212.693 85.2567 212.061 79.8979C211.432 74.5274 210.024 69.3645 208.082 64.5723ZM149.964 12.4844C148.845 12.0343 147.729 11.5725 146.603 11.152C138.732 8.12968 130.646 5.79717 122.452 4.0959L122.462 4.04719L120.417 3.6317L115.712 27.9082L117.444 28.2584L121.702 7.70694C129.708 9.36948 137.605 11.6461 145.279 14.5941L139.084 30.7512C134.489 28.9799 129.774 27.4909 124.992 26.2392L127.909 15.0416C130.696 15.7696 133.464 16.5756 136.206 17.4656L134.757 21.9231C133.155 21.3961 131.538 20.9118 129.915 20.4456L128.903 23.9892C130.483 24.4445 132.059 24.9161 133.62 25.428C134.778 25.7992 135.923 26.1992 137.068 26.5969L138.298 23.1197L141.098 15.2324L140.629 15.0693L137.339 13.9625C134.527 13.0516 131.69 12.2202 128.835 11.4768C127.556 11.1471 126.278 10.8271 124.991 10.5295L124.153 14.1188L121.528 25.3897L120.795 28.5276L120.691 28.9767C127.636 30.5922 134.435 32.7573 140.953 35.4693L150.434 12.6888L149.964 12.4844Z" fill="url(#paint0_linear_17_581)"/>
<defs>
<linearGradient id="paint0_linear_17_581" x1="53.94" y1="-9.25541" x2="158.924" y2="160.905" gradientUnits="userSpaceOnUse">
<stop stop-color="#D2AE6D"/>
<stop offset="0.736061" stop-color="#6C5938"/>
</linearGradient>
</defs>
</svg>
