<svg width="44" height="98" viewBox="0 0 44 98" fill="none" xmlns="http://www.w3.org/2000/svg">
<path d="M3.41871 53.0269C4.73671 48.2136 5.96073 43.4441 6.1743 38.4313C6.19336 37.984 6.21775 37.6518 5.93428 37.2887C5.5796 36.8344 5.18274 36.427 4.85523 35.9483C4.26806 35.0901 3.81671 34.1373 3.57166 33.1246C3.44251 32.5909 3.37007 32.0445 3.38835 31.4948C3.39835 31.194 3.44908 30.9115 3.49584 30.6156C3.55483 30.2423 3.44924 29.985 3.32876 29.6332C2.94124 28.5014 2.70944 27.3214 2.6021 26.1311C2.35011 23.3366 2.748 20.5684 3.35577 17.8458C2.50181 16.5494 1.78134 15.1832 1.20511 13.705C2.53627 12.3421 4.18551 11.8693 6.15841 11.9005C5.44645 11.2918 4.69791 10.9715 3.84504 10.6952C5.63496 9.58116 7.45373 8.69755 9.41759 7.9162C9.16142 8.82869 8.95519 9.69289 8.90188 10.6337C9.38881 10.1871 9.64503 9.32368 10.0044 8.76432C10.3851 8.17171 10.8143 7.60934 11.3008 7.09942C12.2955 6.05684 13.4812 5.28274 14.9644 5.26804C14.1469 6.10224 13.4679 6.94022 12.9647 7.9495C13.3301 7.91285 13.7253 7.53609 14.0467 7.36165C14.4862 7.12318 14.9392 6.90948 15.4011 6.71831C16.3205 6.33781 17.2762 6.04952 18.246 5.82898C20.2871 5.36477 22.3735 5.22899 24.4544 5.06373C28.0399 4.77898 32.4142 4.44368 34.4108 0.966984C34.7645 3.79862 33.0592 6.4144 30.9886 8.16408C29.8352 9.1387 28.5536 9.96181 27.2249 10.6753C26.5507 11.0373 25.8616 11.3709 25.163 11.6831C24.5507 11.9567 23.7478 12.141 23.213 12.5407C24.7527 12.3545 26.3466 11.6985 27.7588 11.081C29.2026 10.4496 30.5798 9.6638 31.8304 8.70292C34.1869 6.89236 36.0115 4.491 36.7378 1.57817C38.7651 5.9769 38.7624 11.1622 35.8029 15.1319C36.5373 14.6871 37.0602 13.798 37.4792 13.0778C38.0275 12.1356 38.4435 11.1229 38.7254 10.0699C39.3297 7.81293 39.3277 5.3172 38.8384 3.03906C42.3407 7.06393 43.5746 14.238 39.2192 19.3062C40.1551 21.4106 40.7286 23.62 40.9789 25.9071C41.0945 26.9633 41.327 28.1478 41.2289 29.2103C41.1348 30.229 40.5592 31.1067 40.1121 31.9992C39.9899 31.3988 40.1005 30.9041 40.0386 30.3834C39.4968 30.4257 39.0149 30.6457 38.3965 30.7879C39.2379 31.1481 39.6358 31.7988 40.0542 32.5542C39.3577 32.3931 38.746 32.2517 38.0633 32.0938C39.1045 34.0828 40.2616 36.0704 40.9962 38.2006C41.3089 39.1073 41.343 40.2183 40.7554 41.0285C40.5438 41.3204 40.2584 41.5503 39.9315 41.7009C39.7344 41.7917 39.5244 41.8521 39.3107 41.8884C39.1506 41.9156 38.8176 41.8616 38.6991 41.9959C41.6828 44.2047 43.2375 47.8462 43.0846 51.5258C42.1546 50.7041 41.2747 49.972 40.2603 49.2846C44.177 55.9212 43.4045 62.2887 39.4503 68.5153C39.3135 67.1302 39.2829 65.739 38.9242 64.386C38.6784 66.0186 38.4603 67.6499 38.3694 69.3714C36.208 68.1287 34.837 65.934 34.367 63.5154C34.1386 64.3646 34.1772 65.9317 34.9028 67.7477C29.9761 65.2074 24.6139 61.9259 24.0335 55.8704C23.6194 56.8059 23.922 58.2398 24.0644 59.2005C24.2831 60.6765 24.7949 62.0451 25.4113 63.3975C23.1421 61.7885 20.9414 59.8885 19.3832 57.5618C18.6232 56.427 18.0471 55.1877 17.7192 53.8597C17.3676 52.4357 17.4524 51.045 17.3325 49.6029C16.5113 51.9706 17.003 54.6215 17.8725 56.8961C16.6138 55.7274 15.4487 54.4459 14.571 52.9604C13.6617 51.4214 13.2344 49.7657 13.1039 47.9913C12.8047 43.9245 13.6886 39.8715 13.7552 35.8101C13.771 34.8418 13.7437 33.8727 13.6686 32.9072C13.5952 31.9657 13.5611 30.9142 13.2552 30.0143C12.788 28.64 11.4784 27.5524 10.1119 27.1432C6.99962 26.2112 4.72466 29.004 4.91837 31.952C5.04432 33.8687 6.22856 35.5701 7.61491 36.826C8.30048 37.447 9.10315 38.0647 9.95052 38.4481C10.9637 38.9065 11.9351 38.4617 12.9305 38.1706C12.9305 38.6832 12.9305 39.1491 12.9305 39.6184C11.0679 40.6534 9.39088 40.0681 7.74693 38.9097C7.5883 41.6892 7.24396 44.4233 6.62575 47.1396C6.32786 48.4485 6.03745 49.7889 5.62145 51.0662C5.26453 52.1621 4.34963 52.4854 3.41871 53.0269ZM25.0195 17.4665C27.4696 16.8346 29.722 15.8724 31.7593 14.4277C33.623 13.1061 35.1559 11.4963 36.0831 9.37214C36.1832 9.14273 36.2727 8.90782 36.3521 8.67047C36.4303 8.43694 36.4895 8.19704 36.5921 7.8368C36.4753 7.97967 36.4401 8.01 36.4207 8.04831C35.3079 10.2389 33.6466 11.9318 31.6217 13.2799C28.7708 15.1779 25.6265 16.4278 22.3506 17.4156C21.8056 17.0712 21.2644 16.7122 20.7066 16.3815C20.1613 16.0582 19.6057 15.7506 19.0423 15.46C18.4659 15.1628 17.8839 14.8725 17.2871 14.6199C16.6909 14.3676 16.0752 14.1605 15.4646 13.9431C14.8672 13.7305 14.2549 13.5653 13.6331 13.444C13.0136 13.3232 12.3962 13.1664 11.7547 13.2034C11.8409 13.2784 11.9332 13.3168 12.0284 13.346C15.4191 14.3848 18.3622 16.1974 21.0025 18.5343C21.1349 18.6515 21.271 18.7522 21.2796 18.9607C21.3208 19.9632 21.373 20.9653 21.4218 21.9779C19.8283 23.2356 18.2428 24.4908 16.6512 25.7381C16.4794 25.8727 16.3547 26.0033 16.3344 26.2357C16.1939 27.8417 16.0707 29.4484 16.1028 31.0621C16.1068 31.2655 16.1498 31.4737 16.2083 31.6697C17.0715 34.5654 17.5154 37.5162 17.3936 40.5434C17.3903 40.6254 17.3383 40.7311 17.4597 40.79C17.7585 39.5437 17.7976 38.2652 17.9465 36.9937C18.6956 38.3687 19.2611 39.8082 19.7855 41.2618C20.3021 42.6939 20.7656 44.1451 21.2523 45.588C21.2739 45.5826 21.2956 45.5773 21.3172 45.572C21.1557 44.2262 20.9942 42.8804 20.8328 41.5346C22.8592 43.6756 24.8917 45.7239 27.4388 47.24C28.8287 44.7718 30.7244 42.8717 33.2966 41.6767C32.2754 40.8003 31.9798 40.0829 32.3151 39.3482C32.5838 38.7594 33.3257 38.3355 33.9609 38.4164C33.6377 38.8353 33.2985 39.2744 33.5832 39.8198C33.8727 40.3743 34.4062 40.5394 35.0078 40.5349C36.2497 40.5256 37.4919 40.5363 38.7336 40.5167C39.3362 40.5073 39.6419 40.1759 39.69 39.5781C39.7243 39.1521 39.6118 38.7617 39.4536 38.3743C38.6658 36.4453 37.7059 34.5999 36.7257 32.7649C36.386 32.129 36.3287 31.5239 36.7364 30.8885C36.9253 30.5941 37.063 30.2579 37.1719 29.9237C37.2696 29.6236 37.4302 29.4692 37.7388 29.3882C38.4177 29.2098 39.0856 28.9895 39.74 28.7917C39.8245 26.3882 38.9054 21.9583 37.9588 20.1864C33.6593 19.2827 29.3394 18.3746 25.0195 17.4665ZM37.1022 47.3386C37.635 47.9683 38.0461 48.6592 38.5015 49.3245C38.1346 48.1567 37.68 47.0305 37.0648 45.9496C36.6373 45.8546 36.2083 45.7593 35.8836 45.6871C33.7076 46.5917 32.8145 48.3987 32.1842 50.4077C33.0712 49.3883 33.9189 48.3355 34.8415 47.3455C35.6085 47.5625 36.353 47.5266 37.1022 47.3386ZM26.8048 6.35565C24.239 8.15791 21.396 9.39619 18.6248 10.9303C21.7091 10.9176 26.0402 8.48583 26.8048 6.35565Z" fill="#D2AE6D"/>
<path d="M10.9884 31.6187C10.5202 30.8832 8.83052 28.7335 7.77372 29.6216C7.23244 30.0764 7.15082 31.1583 7.0791 31.8026C7.02778 32.2636 7.0125 32.727 7.0206 33.1906C7.02828 33.6307 7.14251 34.1421 7.07868 34.5748C5.96975 33.5939 5.44637 31.6933 5.84291 30.2752C6.2978 28.6485 8.01049 27.8102 9.57874 28.4122C10.3977 28.7266 11.1766 29.3936 11.4879 30.231C11.831 31.1541 11.2466 32.1459 10.969 33.0198C10.8334 33.4465 10.6763 33.8691 10.7795 34.3223C10.8905 34.8098 11.2625 35.0738 11.5096 35.4802C12.0749 36.4098 11.0665 36.5502 10.4008 36.241C9.54338 35.8428 8.82194 34.9313 8.8922 33.9496C8.97403 32.8062 10.17 32.2173 10.9884 31.6187Z" fill="#D2AE6D"/>
<path d="M24.0112 30.4342C24.5647 29.7289 25.104 29.1467 25.738 28.656C26.8095 27.8267 28.0059 27.5223 29.3207 27.8827C31.0373 28.3532 32.7422 28.8665 34.4912 29.3727C34.4196 29.8074 34.3515 30.2211 34.2709 30.711C33.8572 30.1971 33.3137 30.2719 32.8188 30.1876C31.526 29.9674 30.228 29.7787 28.9569 29.4399C28.0702 29.2035 27.1967 29.3677 26.344 29.6422C25.591 29.8846 24.8454 30.1499 24.0112 30.4342Z" fill="#D2AE6D"/>
<path d="M32.2967 32.3842C31.422 31.5843 30.289 31.9108 29.215 31.8641C27.8562 31.8051 26.4839 31.8219 25.1495 32.113C26.3037 31.0842 27.7448 30.4653 29.2935 30.3931C30.7636 30.3246 32.0726 30.7794 32.2967 32.3842Z" fill="#D2AE6D"/>
<path d="M6.42733 91.7698C5.70546 91.7698 5.02733 91.6277 4.39296 91.3433C3.76952 91.0589 3.21718 90.6706 2.73593 90.1784C2.25468 89.6862 1.87733 89.1175 1.60389 88.4722C1.34139 87.8159 1.21014 87.1214 1.21014 86.3886C1.21014 85.612 1.34686 84.8847 1.6203 84.2066C1.89374 83.5175 2.27655 82.9159 2.76874 82.4019C3.26093 81.8769 3.83514 81.4667 4.49139 81.1714C5.14764 80.8761 5.85311 80.7284 6.6078 80.7284C7.84374 80.7284 9.13436 80.8761 10.4797 81.1714C10.5015 81.1714 10.518 81.2808 10.5289 81.4995C10.5508 81.7073 10.5672 81.9589 10.5781 82.2542C10.589 82.5386 10.6 82.8066 10.6109 83.0581C10.6219 83.3097 10.6273 83.4792 10.6273 83.5667C10.6273 83.7308 10.4961 83.8128 10.2336 83.8128C10.157 83.8128 10.0805 83.7909 10.0039 83.7472C9.96014 83.5503 9.87811 83.348 9.7578 83.1402C9.64842 82.9323 9.47889 82.6972 9.24921 82.4347C9.01952 82.1722 8.68046 81.9589 8.23202 81.7948C7.78358 81.6198 7.26405 81.5323 6.67343 81.5323C5.96249 81.5323 5.34999 81.7402 4.83593 82.1558C4.3328 82.5605 3.94452 83.1019 3.67108 83.78C3.40858 84.4581 3.27733 85.2128 3.27733 86.0441C3.27733 86.9628 3.42499 87.7941 3.7203 88.5378C4.02655 89.2816 4.46952 89.8777 5.04921 90.3261C5.62889 90.7636 6.32343 90.9823 7.1328 90.9823C8.0953 90.9823 8.86639 90.6761 9.44608 90.0636C9.62108 89.8777 9.75233 89.6698 9.83983 89.4402C9.93827 89.1995 10.0148 88.9917 10.0695 88.8167C10.1242 88.6308 10.1734 88.5378 10.2172 88.5378C10.6 88.5378 10.8133 88.587 10.857 88.6855C10.857 88.7511 10.8297 88.9097 10.775 89.1612C10.7312 89.4019 10.6765 89.6698 10.6109 89.9652C10.5453 90.2495 10.4742 90.5011 10.3976 90.7198C10.332 90.9386 10.2773 91.0589 10.2336 91.0808C9.28202 91.5402 8.01327 91.7698 6.42733 91.7698ZM11.7922 91.7206C11.7484 91.6769 11.7265 91.573 11.7265 91.4089C11.7265 91.2558 11.7484 91.1792 11.7922 91.1792C11.8797 91.1792 11.9945 91.1573 12.1367 91.1136C12.2789 91.0698 12.4101 91.0152 12.5305 90.9495C12.6617 90.8839 12.7328 90.8292 12.7437 90.7855C12.7875 90.5995 12.8203 90.4027 12.8422 90.1948C12.864 89.987 12.875 89.7792 12.875 89.5714V82.7464C12.875 82.3308 12.8422 81.9589 12.7765 81.6308C12.7328 81.4558 12.4594 81.3683 11.9562 81.3683H11.7922C11.7265 81.3683 11.6937 81.3027 11.6937 81.1714C11.6937 80.9964 11.7265 80.9089 11.7922 80.9089C12.3937 80.8542 12.9351 80.7612 13.4164 80.63C13.9086 80.4987 14.2367 80.4003 14.4008 80.3347L14.5156 80.2855H14.5484C14.5922 80.2855 14.6359 80.3183 14.6797 80.3839C14.7344 80.4495 14.7672 80.5042 14.7781 80.548C14.6469 80.9527 14.5812 81.4667 14.5812 82.0902V89.3089C14.5812 89.998 14.6195 90.4902 14.6961 90.7855C14.718 90.8292 14.789 90.8839 14.9094 90.9495C15.0297 91.0152 15.1609 91.0698 15.3031 91.1136C15.4453 91.1573 15.5437 91.1792 15.5984 91.1792C15.6312 91.1792 15.6476 91.2558 15.6476 91.4089C15.6586 91.562 15.6531 91.6659 15.6312 91.7206C15.2922 91.6987 14.9476 91.6769 14.5976 91.655C14.2476 91.6331 13.9578 91.6222 13.7281 91.6222C13.389 91.6222 13.039 91.6331 12.6781 91.655C12.3281 91.6769 12.0328 91.6987 11.7922 91.7206ZM16.5664 91.7206C16.5226 91.6769 16.5008 91.573 16.5008 91.4089C16.5008 91.2558 16.5226 91.1792 16.5664 91.1792C16.6539 91.1792 16.7687 91.1573 16.9109 91.1136C17.0531 91.0698 17.1844 91.0152 17.3047 90.9495C17.4359 90.8839 17.507 90.8292 17.518 90.7855C17.5617 90.5995 17.5945 90.4027 17.6164 90.1948C17.6383 89.987 17.6492 89.7792 17.6492 89.5714V86.93C17.6492 86.4159 17.5617 86.0659 17.3867 85.88C17.2883 85.7597 17.1625 85.6777 17.0094 85.6339C16.8672 85.5902 16.7359 85.5628 16.6156 85.5519C16.5062 85.5409 16.4515 85.5245 16.4515 85.5027C16.4515 85.1745 16.4789 85.0105 16.5336 85.0105C16.8836 84.9667 17.2664 84.9066 17.682 84.83C18.1086 84.7425 18.4914 84.6605 18.8305 84.5839L19.3555 84.4527C19.432 84.4527 19.4703 84.562 19.4703 84.7808C19.4703 84.923 19.4484 85.1308 19.4047 85.4042C19.3719 85.6667 19.3555 85.9292 19.3555 86.1917V89.3089C19.3555 89.998 19.3937 90.4902 19.4703 90.7855C19.4922 90.8292 19.5633 90.8839 19.6836 90.9495C19.8039 91.0152 19.9351 91.0698 20.0773 91.1136C20.2195 91.1573 20.318 91.1792 20.3726 91.1792C20.4055 91.1792 20.4219 91.2558 20.4219 91.4089C20.4328 91.562 20.4273 91.6659 20.4055 91.7206C20.0664 91.6987 19.7219 91.6769 19.3719 91.655C19.0219 91.6331 18.732 91.6222 18.5023 91.6222C18.1633 91.6222 17.8133 91.6331 17.4523 91.655C17.1023 91.6769 16.807 91.6987 16.5664 91.7206ZM18.3711 82.7464C18.0976 82.7464 17.8625 82.648 17.6656 82.4511C17.4687 82.2542 17.3703 82.0191 17.3703 81.7456C17.3703 81.4722 17.4687 81.2425 17.6656 81.0566C17.8625 80.8597 18.0976 80.7612 18.3711 80.7612C18.6445 80.7612 18.8742 80.8597 19.0601 81.0566C19.257 81.2425 19.3555 81.4722 19.3555 81.7456C19.3555 82.0191 19.257 82.2542 19.0601 82.4511C18.8742 82.648 18.6445 82.7464 18.3711 82.7464ZM24.6711 91.7698C24.0367 91.7698 23.4515 91.6112 22.9156 91.2941C22.3906 90.9659 21.9695 90.5284 21.6523 89.9816C21.3351 89.4237 21.1765 88.8112 21.1765 88.1441C21.1765 87.4003 21.3242 86.7495 21.6195 86.1917C21.9148 85.6339 22.314 85.2019 22.8172 84.8956C23.3312 84.5784 23.9164 84.4198 24.5726 84.4198C25.1086 84.4198 25.568 84.5183 25.9508 84.7152C26.3336 84.912 26.6453 85.1691 26.8859 85.4862C27.1375 85.7925 27.318 86.1206 27.4273 86.4706C27.5476 86.8097 27.6078 87.1269 27.6078 87.4222C27.6078 87.6628 27.564 87.8159 27.4765 87.8816C27.4 87.9362 27.2359 87.9636 26.9844 87.9636H23.0633C22.9867 87.9636 22.9484 87.9964 22.9484 88.062C22.9484 88.4667 23.0195 88.8495 23.1617 89.2105C23.3039 89.5823 23.5445 89.905 23.8836 90.1784C24.2336 90.4519 24.6492 90.5886 25.1305 90.5886C25.4148 90.5886 25.65 90.5667 25.8359 90.523C26.0219 90.4792 26.2023 90.43 26.3773 90.3753C26.4648 90.3425 26.5742 90.2878 26.7055 90.2112C26.8367 90.1237 26.957 90.0472 27.0664 89.9816C27.1758 89.905 27.2305 89.8667 27.2305 89.8667C27.2523 89.8777 27.2797 89.9105 27.3125 89.9652C27.3453 90.0198 27.3617 90.0745 27.3617 90.1292C27.3617 90.2495 27.3289 90.3534 27.2633 90.4409C27.1539 90.6378 26.968 90.8402 26.7055 91.048C26.4539 91.2448 26.1531 91.4144 25.8031 91.5566C25.4531 91.6987 25.0758 91.7698 24.6711 91.7698ZM23.0633 87.1761H25.7211C25.8195 87.1761 25.8687 87.0941 25.8687 86.93C25.8687 86.6675 25.8086 86.405 25.6883 86.1425C25.5789 85.8691 25.4148 85.6394 25.1961 85.4534C24.9883 85.2675 24.7422 85.1745 24.4578 85.1745C24.1187 85.1745 23.8344 85.2894 23.6047 85.5191C23.3859 85.7487 23.2219 86.0112 23.1125 86.3066C23.014 86.6019 22.9648 86.8534 22.9648 87.0612C22.9648 87.1378 22.9976 87.1761 23.0633 87.1761ZM28.4445 91.737C28.4008 91.6933 28.3789 91.5894 28.3789 91.4253C28.3789 91.2612 28.4008 91.1792 28.4445 91.1792C28.532 91.1792 28.6523 91.1628 28.8055 91.13C28.9695 91.0862 29.1172 91.037 29.2484 90.9823C29.3906 90.9167 29.4672 90.862 29.4781 90.8183C29.5547 90.512 29.593 90.1128 29.593 89.6206V86.9464C29.593 86.4542 29.5055 86.1042 29.3305 85.8964C29.232 85.7761 29.1062 85.6995 28.9531 85.6667C28.8109 85.623 28.6851 85.5956 28.5758 85.5847C28.4664 85.5628 28.4117 85.5355 28.4117 85.5027C28.4117 85.1964 28.439 85.0323 28.4937 85.0105C28.7453 84.9886 29.1117 84.9339 29.593 84.8464C30.0851 84.7589 30.5445 84.6605 30.9711 84.5511C30.993 84.5402 31.0422 84.5292 31.1187 84.5183C31.2062 84.4964 31.2555 84.4855 31.2664 84.4855C31.3101 84.4855 31.3484 84.5237 31.3812 84.6003C31.414 84.6769 31.4305 84.737 31.4305 84.7808C31.4086 84.9339 31.3922 85.0597 31.3812 85.1581C31.3703 85.2566 31.3648 85.3277 31.3648 85.3714C31.3648 85.4261 31.3758 85.4534 31.3976 85.4534C31.4086 85.4534 31.4305 85.437 31.4633 85.4042C31.7258 85.1417 32.0594 84.912 32.464 84.7152C32.8797 84.5183 33.3008 84.4198 33.7273 84.4198C35.1383 84.4198 35.8437 85.5409 35.8437 87.7831V89.3417C35.8437 90.0308 35.882 90.523 35.9586 90.8183C35.9805 90.862 36.057 90.9167 36.1883 90.9823C36.3305 91.037 36.4781 91.0862 36.6312 91.13C36.7953 91.1628 36.9101 91.1792 36.9758 91.1792C37.0086 91.1792 37.025 91.2612 37.025 91.4253C37.0359 91.5784 37.0305 91.6823 37.0086 91.737C36.9648 91.7261 36.8117 91.7097 36.5492 91.6878C36.2976 91.6769 36.0187 91.6659 35.7125 91.655C35.4172 91.6331 35.182 91.6222 35.007 91.6222C34.832 91.6222 34.6023 91.6331 34.318 91.655C34.0445 91.6659 33.782 91.6769 33.5305 91.6878C33.2898 91.7097 33.1367 91.7261 33.0711 91.737C33.0273 91.6933 33.0055 91.5894 33.0055 91.4253C33.0055 91.2612 33.0273 91.1792 33.0711 91.1792C33.1586 91.1792 33.2734 91.1628 33.4156 91.13C33.5578 91.0862 33.689 91.037 33.8094 90.9823C33.9406 90.9167 34.0117 90.862 34.0226 90.8183C34.0664 90.6542 34.0992 90.4737 34.1211 90.2769C34.143 90.08 34.1539 89.8612 34.1539 89.6206V88.062C34.1539 87.1542 34.0281 86.5198 33.7765 86.1589C33.5359 85.798 33.1476 85.6175 32.6117 85.6175C32.2617 85.6175 31.9555 85.7159 31.693 85.9128C31.4305 86.0987 31.2992 86.3011 31.2992 86.5198V89.3417C31.2992 90.0308 31.3375 90.523 31.414 90.8183C31.4359 90.862 31.5125 90.9167 31.6437 90.9823C31.775 91.037 31.9172 91.0862 32.0703 91.13C32.2234 91.1628 32.3273 91.1792 32.382 91.1792C32.4258 91.1792 32.4476 91.2612 32.4476 91.4253C32.4586 91.5784 32.4531 91.6823 32.4312 91.737C32.3765 91.7261 32.218 91.7097 31.9555 91.6878C31.7039 91.6769 31.4359 91.6659 31.1515 91.655C30.8672 91.6331 30.6375 91.6222 30.4625 91.6222C30.2875 91.6222 30.0523 91.6331 29.757 91.655C29.4617 91.6659 29.1828 91.6769 28.9203 91.6878C28.6687 91.7097 28.5101 91.7261 28.4445 91.737ZM40.9461 91.7862C40.3773 91.7862 39.8906 91.6058 39.4859 91.2448C39.0922 90.873 38.8953 90.3042 38.8953 89.5386V85.5683H37.8945C37.818 85.5683 37.7797 85.4261 37.7797 85.1417C37.7797 85.0542 37.7851 85.005 37.7961 84.9941C38.0148 84.8956 38.2281 84.7753 38.4359 84.6331C38.6437 84.48 38.8515 84.3105 39.0594 84.1245C39.3765 83.8073 39.6336 83.5339 39.8305 83.3042C40.0273 83.0636 40.1258 82.9433 40.1258 82.9433C40.1805 82.9433 40.2351 82.9487 40.2898 82.9597C40.3445 82.9597 40.3937 82.9652 40.4375 82.9761C40.5359 83.0089 40.5851 83.0417 40.5851 83.0745V84.6823H41.7828C42.0344 84.6823 42.2258 84.6878 42.357 84.6987C42.4992 84.6987 42.5758 84.6987 42.5867 84.6987C42.6742 84.6987 42.718 84.748 42.718 84.8464C42.718 85.1198 42.6633 85.3605 42.5539 85.5683H40.5851V89.5222C40.5851 89.9597 40.6781 90.2933 40.864 90.523C41.05 90.7527 41.307 90.8675 41.6351 90.8675C41.8648 90.8675 42.0781 90.8237 42.275 90.7362C42.4719 90.6378 42.5812 90.5886 42.6031 90.5886C42.6469 90.5777 42.6961 90.6269 42.7508 90.7362C42.8055 90.8456 42.8273 90.9167 42.8164 90.9495C42.7726 91.048 42.6469 91.1628 42.439 91.2941C42.2422 91.4253 42.007 91.5402 41.7336 91.6386C41.4711 91.737 41.2086 91.7862 40.9461 91.7862Z" fill="#D2AE6D"/>
</svg>
