<svg width="27" height="42" viewBox="0 0 27 42" fill="none" xmlns="http://www.w3.org/2000/svg">
<path d="M2.26127 32.1883C3.05206 29.3003 3.78648 26.4386 3.91462 23.4309C3.92605 23.1625 3.94069 22.9632 3.77061 22.7453C3.5578 22.4728 3.31968 22.2283 3.12318 21.9411C2.77088 21.4261 2.50007 20.8545 2.35303 20.2469C2.27555 19.9267 2.23208 19.5988 2.24305 19.269C2.24905 19.0885 2.27949 18.919 2.30754 18.7415C2.34294 18.5175 2.27959 18.3631 2.2073 18.152C1.97479 17.473 1.83571 16.765 1.7713 16.0507C1.6201 14.3741 1.85884 12.7131 2.2235 11.0796C1.71113 10.3018 1.27884 9.482 0.933105 8.59512C1.7318 7.77738 2.72134 7.4937 3.90509 7.5124C3.47791 7.14717 3.02878 6.95498 2.51706 6.78921C3.59102 6.12081 4.68228 5.59064 5.8606 5.12183C5.70689 5.66932 5.58315 6.18784 5.55117 6.75231C5.84333 6.48435 5.99706 5.96632 6.21268 5.6307C6.44112 5.27514 6.69865 4.93772 6.99054 4.63177C7.58735 4.00621 8.29874 3.54176 9.18865 3.53293C8.69818 4.03346 8.29078 4.53624 7.98889 5.14181C8.20811 5.11982 8.44523 4.89376 8.63808 4.7891C8.90174 4.64602 9.17354 4.5178 9.4507 4.4031C10.0023 4.1748 10.5758 4.00183 11.1576 3.8695C12.3823 3.59097 13.6341 3.5095 14.8827 3.41035C17.034 3.2395 19.6586 3.03832 20.8565 0.952301C21.0688 2.65128 20.0456 4.22075 18.8032 5.27056C18.1112 5.85533 17.3422 6.3492 16.545 6.77729C16.1405 6.99449 15.727 7.19463 15.3078 7.38195C14.9405 7.54615 14.4587 7.65674 14.1378 7.89655C15.0616 7.78479 16.018 7.39122 16.8653 7.02069C17.7316 6.64186 18.5579 6.17039 19.3083 5.59386C20.7222 4.50753 21.8169 3.06671 22.2527 1.31901C23.4691 3.95825 23.4675 7.06946 21.6918 9.45123C22.1324 9.18439 22.4462 8.6509 22.6976 8.21882C23.0265 7.65347 23.2762 7.04585 23.4453 6.41406C23.8078 5.05987 23.8066 3.56243 23.5131 2.19555C25.6144 4.61047 26.3548 8.9149 23.7415 11.9559C24.3031 13.2185 24.6472 14.5441 24.7974 15.9164C24.8668 16.5501 25.0063 17.2608 24.9474 17.8983C24.8909 18.5095 24.5456 19.0361 24.2773 19.5716C24.204 19.2114 24.2704 18.9146 24.2332 18.6022C23.9081 18.6275 23.619 18.7595 23.2479 18.8449C23.7528 19.0609 23.9915 19.4514 24.2425 19.9046C23.8247 19.808 23.4577 19.7231 23.048 19.6284C23.6728 20.8218 24.367 22.0144 24.8077 23.2925C24.9954 23.8365 25.0159 24.5031 24.6633 24.9892C24.5363 25.1643 24.3651 25.3023 24.1689 25.3927C24.0507 25.4471 23.9247 25.4833 23.7965 25.5051C23.7004 25.5215 23.5006 25.489 23.4295 25.5697C25.2197 26.895 26.1526 29.0798 26.0608 31.2876C25.5028 30.7946 24.9748 30.3553 24.3662 29.9429C26.7162 33.9248 26.2527 37.7453 23.8802 41.4813C23.7981 40.6503 23.7798 39.8155 23.5645 39.0037C23.4171 39.9833 23.2862 40.9621 23.2317 41.995C21.9348 41.2493 21.1123 39.9325 20.8302 38.4814C20.6932 38.9909 20.7163 39.9312 21.1517 41.0207C18.1957 39.4966 14.9784 37.5276 14.6301 33.8944C14.3817 34.4557 14.5633 35.316 14.6487 35.8924C14.7799 36.778 15.087 37.5992 15.4568 38.4106C14.0953 37.4452 12.7749 36.3052 11.8399 34.9092C11.384 34.2283 11.0383 33.4847 10.8416 32.6879C10.6306 31.8335 10.6815 30.9991 10.6095 30.1339C10.1168 31.5545 10.4119 33.145 10.9335 34.5098C10.1783 33.8085 9.47925 33.0397 8.95266 32.1484C8.40708 31.2249 8.15068 30.2315 8.07236 29.1669C7.89283 26.7268 8.42322 24.295 8.46314 21.8582C8.47265 21.2772 8.45629 20.6958 8.41118 20.1164C8.36719 19.5515 8.34672 18.9206 8.16316 18.3807C7.88282 17.5561 7.09706 16.9036 6.27716 16.658C4.40981 16.0988 3.04484 17.7745 3.16106 19.5433C3.23663 20.6933 3.94717 21.7141 4.77899 22.4677C5.19033 22.8403 5.67193 23.2109 6.18035 23.441C6.78824 23.716 7.37111 23.4492 7.96832 23.2745C7.96832 23.582 7.96832 23.8616 7.96832 24.1432C6.85078 24.7642 5.84457 24.413 4.8582 23.7179C4.76302 25.3856 4.55642 27.0261 4.18549 28.6559C4.00676 29.4412 3.83251 30.2455 3.58291 31.0118C3.36876 31.6694 2.81982 31.8633 2.26127 32.1883ZM15.2218 10.852C16.6918 10.4729 18.0432 9.89556 19.2656 9.02872C20.3838 8.23577 21.3036 7.2699 21.8599 5.99539C21.92 5.85775 21.9736 5.71681 22.0213 5.57439C22.0682 5.43427 22.1037 5.29034 22.1653 5.07419C22.0952 5.15991 22.0741 5.17811 22.0624 5.2011C21.3948 6.51547 20.398 7.53118 19.1831 8.34003C17.4725 9.47886 15.5859 10.2288 13.6204 10.8215C13.2934 10.6148 12.9687 10.3995 12.634 10.201C12.3068 10.007 11.9735 9.82245 11.6354 9.64812C11.2896 9.46977 10.9404 9.29561 10.5823 9.14406C10.2246 8.99265 9.85516 8.86839 9.4888 8.738C9.13035 8.61042 8.76297 8.51128 8.38988 8.43852C8.01822 8.36603 7.64778 8.27194 7.26285 8.29413C7.31459 8.33912 7.36998 8.36221 7.42709 8.37971C9.46152 9.00301 11.2274 10.0906 12.8115 11.4927C12.891 11.563 12.9727 11.6234 12.9778 11.7485C13.0025 12.35 13.0338 12.9513 13.0631 13.5589C12.107 14.3135 11.1557 15.0666 10.2007 15.815C10.0977 15.8957 10.0229 15.9741 10.0107 16.1136C9.92635 17.0771 9.85247 18.0411 9.87171 19.0094C9.87414 19.1314 9.89994 19.2563 9.935 19.3739C10.453 21.1114 10.7193 22.8818 10.6462 24.6981C10.6442 24.7474 10.613 24.8108 10.6859 24.8461C10.8652 24.0984 10.8886 23.3312 10.978 22.5683C11.4274 23.3933 11.7667 24.257 12.0813 25.1292C12.3913 25.9884 12.6694 26.8592 12.9614 27.7249C12.9744 27.7217 12.9874 27.7185 13.0003 27.7153C12.9035 26.9078 12.8066 26.1003 12.7097 25.2929C13.9256 26.5775 15.1451 27.8065 16.6733 28.7161C17.5073 27.2352 18.6447 26.0952 20.188 25.3782C19.5753 24.8523 19.3979 24.4219 19.5991 23.981C19.7603 23.6278 20.2055 23.3734 20.5866 23.4219C20.3926 23.6733 20.1891 23.9367 20.36 24.264C20.5337 24.5967 20.8537 24.6958 21.2147 24.6931C21.9599 24.6875 22.7052 24.6939 23.4502 24.6822C23.8118 24.6765 23.9952 24.4776 24.0241 24.119C24.0446 23.8634 23.9771 23.6291 23.8822 23.3967C23.4095 22.2393 22.8336 21.132 22.2454 20.031C22.0416 19.6495 22.0073 19.2864 22.2519 18.9052C22.3652 18.7286 22.4478 18.5268 22.5131 18.3263C22.5718 18.1463 22.6682 18.0537 22.8533 18.005C23.2607 17.898 23.6614 17.7658 24.054 17.6471C24.1048 16.2051 23.5533 13.5471 22.9853 12.484C20.4056 11.9417 17.8137 11.3969 15.2218 10.852ZM22.4714 28.7753C22.791 29.1531 23.0377 29.5676 23.3109 29.9668C23.0908 29.2661 22.818 28.5904 22.4489 27.9418C22.1924 27.8849 21.935 27.8277 21.7402 27.7844C20.4346 28.3271 19.8987 29.4114 19.5206 30.6167C20.0528 30.0051 20.5614 29.3734 21.115 28.7794C21.5752 28.9096 22.0218 28.8881 22.4714 28.7753ZM16.2929 4.1855C14.7535 5.26686 13.0476 6.00983 11.3849 6.93031C13.2355 6.9227 15.8341 5.46361 16.2929 4.1855Z" fill="#D2AE6D"/>
<path d="M6.80305 19.3434C6.52216 18.902 5.50834 17.6122 4.87426 18.1451C4.54949 18.418 4.50052 19.0671 4.45749 19.4537C4.42669 19.7303 4.41753 20.0083 4.42239 20.2865C4.427 20.5505 4.49553 20.8574 4.45724 21.117C3.79188 20.5285 3.47785 19.3881 3.71578 18.5373C3.98871 17.5612 5.01632 17.0582 5.95727 17.4195C6.44865 17.6081 6.91596 18.0083 7.10274 18.5107C7.30865 19.0646 6.958 19.6597 6.79141 20.184C6.71007 20.44 6.61583 20.6936 6.67772 20.9655C6.7443 21.258 6.96755 21.4164 7.11582 21.6603C7.45495 22.218 6.84992 22.3022 6.4505 22.1167C5.93606 21.8778 5.50319 21.3309 5.54535 20.7419C5.59445 20.0558 6.312 19.7025 6.80305 19.3434Z" fill="#D2AE6D"/>
<path d="M14.6167 18.6326C14.9488 18.2094 15.2724 17.8601 15.6528 17.5657C16.2957 17.0681 17.0135 16.8855 17.8024 17.1017C18.8324 17.384 19.8553 17.692 20.9047 17.9957C20.8618 18.2565 20.8209 18.5047 20.7725 18.7987C20.5243 18.4904 20.1982 18.5352 19.9013 18.4847C19.1256 18.3525 18.3468 18.2393 17.5841 18.0361C17.0521 17.8942 16.528 17.9927 16.0164 18.1574C15.5646 18.3029 15.1172 18.462 14.6167 18.6326Z" fill="#D2AE6D"/>
<path d="M19.5882 19.8027C19.0633 19.3227 18.3835 19.5186 17.7391 19.4906C16.9239 19.4552 16.1004 19.4653 15.2998 19.6399C15.9923 19.0227 16.857 18.6513 17.7862 18.608C18.6683 18.5669 19.4537 18.8398 19.5882 19.8027Z" fill="#D2AE6D"/>
</svg>
