<svg width="57" height="56" viewBox="0 0 57 56" fill="none" xmlns="http://www.w3.org/2000/svg">
<path d="M17.235 38.0302C19.0443 38.0302 20.6778 36.9404 21.3684 35.2676C22.0617 33.5947 21.6783 31.6698 20.3994 30.3909C19.1205 29.112 17.1956 28.7286 15.5227 29.4219C13.8499 30.1125 12.7601 31.746 12.7601 33.5553C12.7627 36.0239 14.7665 38.0276 17.235 38.0302ZM17.235 30.4805C18.4771 30.4805 19.5984 31.2316 20.0764 32.3792C20.5518 33.5268 20.2891 34.8503 19.4094 35.7301C18.5297 36.6098 17.2061 36.8724 16.0585 36.3971C14.9109 35.9192 14.1598 34.7978 14.1598 33.5557C14.1651 31.8592 15.5385 30.4858 17.235 30.4805ZM16.5338 26.544V24.5508C16.5338 24.1621 16.8489 23.8496 17.235 23.8496C17.621 23.8496 17.9362 24.1621 17.9362 24.5508V26.5387C17.9362 26.9248 17.621 27.2399 17.235 27.2399C16.8489 27.2399 16.5338 26.9248 16.5338 26.5387V26.544ZM17.9335 40.5489V42.5369L17.9361 42.5395C17.9361 42.9281 17.621 43.2407 17.2349 43.2407C16.8489 43.2407 16.5337 42.9282 16.5337 42.5395V40.5647C16.5337 40.1786 16.8489 39.8661 17.2349 39.8661C17.621 39.8661 17.9361 40.1786 17.9361 40.5647L17.9335 40.5489ZM24.2361 32.8466L26.2687 32.8492C26.6547 32.8492 26.9699 33.1617 26.9699 33.5478C26.9699 33.9365 26.6547 34.249 26.2687 34.249H24.2518C23.8658 34.249 23.5506 33.9365 23.5506 33.5478C23.5506 33.1618 23.8658 32.8492 24.2518 32.8492L24.2361 32.8466ZM7.52119 33.5478C7.52119 33.1618 7.83632 32.8492 8.22238 32.8492H10.2103C10.599 32.8492 10.9115 33.1617 10.9115 33.5478C10.9115 33.9365 10.599 34.249 10.2103 34.249H8.23549C7.85208 34.249 7.53954 33.9391 7.53692 33.5557L7.52119 33.5478ZM21.6888 29.0861V29.0887C21.5575 28.9574 21.4814 28.7762 21.4814 28.5897C21.4814 28.4033 21.5575 28.2247 21.6888 28.0934L23.0885 26.6937C23.3643 26.418 23.8081 26.418 24.0838 26.6937C24.3596 26.9668 24.3596 27.4133 24.0838 27.6864L22.6841 29.0861V29.0887C22.5502 29.22 22.3716 29.2909 22.1852 29.2909C22.0066 29.2909 21.8333 29.22 21.702 29.094L21.6888 29.0861ZM12.773 38.0173C12.907 38.1486 12.9805 38.3272 12.9805 38.5137C12.9805 38.7001 12.907 38.8787 12.773 39.01L11.3734 40.4097V40.4123C11.1002 40.6828 10.6591 40.6828 10.3859 40.4123C10.1154 40.1392 10.1154 39.698 10.3859 39.4249L11.7856 38.0252V38.0225C12.0587 37.7494 12.4999 37.7468 12.773 38.0173ZM24.0969 39.417C24.3701 39.6928 24.3701 40.1366 24.0943 40.4071C23.8186 40.6802 23.3748 40.6802 23.1042 40.4045L21.7046 39.0048H21.7019C21.5706 38.8735 21.4971 38.6949 21.4971 38.5084C21.4945 38.3246 21.568 38.146 21.6993 38.0121C21.9724 37.739 22.4162 37.7364 22.6894 38.0095L24.0969 39.417ZM10.3784 27.6864C10.2471 27.5551 10.1709 27.3765 10.1709 27.1901C10.1709 27.0036 10.2471 26.825 10.3784 26.6937C10.6515 26.4206 11.0927 26.4206 11.3658 26.6937L12.7655 28.0934H12.7681C12.8994 28.2247 12.9756 28.4033 12.9756 28.5897C12.9756 28.7762 12.8994 28.9574 12.7681 29.0887C12.6342 29.22 12.4556 29.2909 12.2692 29.2909C12.0854 29.2909 11.9094 29.2174 11.7807 29.0887L10.3784 27.6864ZM48.9505 4.42951H42.6478V3.02982C42.5717 1.46207 41.2796 0.233002 39.7119 0.233002C38.1415 0.233002 36.8494 1.462 36.7733 3.02982V4.42951H16.7648V3.02982C16.6887 1.46207 15.3966 0.233002 13.8289 0.233002C12.2585 0.233002 10.9664 1.462 10.8903 3.02982V4.42951H7.78882C3.83393 4.43476 0.627689 7.63858 0.625 11.5933V49.0044C0.625 50.861 1.36296 52.6416 2.67599 53.9546C3.98903 55.2676 5.76956 56.0056 7.6262 56.0056H49.1133C50.9699 56.0056 52.7505 55.2676 54.0635 53.9546C55.3765 52.6416 56.1145 50.861 56.1145 49.0044V11.5933C56.1119 7.63844 52.9052 4.43489 48.9505 4.42951ZM36.7735 6.8875V9.14334C36.7341 9.94692 37.0256 10.7321 37.5823 11.3151C38.1364 11.8981 38.9059 12.229 39.7121 12.229C40.5156 12.229 41.2851 11.8982 41.8419 11.3151C42.396 10.7322 42.6874 9.94692 42.6481 9.14334V6.8875C43.7405 7.76725 44.376 9.09339 44.3708 10.4958C44.3786 12.0977 43.5619 13.592 42.2068 14.4507C40.8544 15.3094 39.1553 15.4144 37.7083 14.7264C36.2588 14.041 35.2661 12.6571 35.077 11.0656C34.8878 9.47421 35.5287 7.89593 36.7735 6.8875ZM38.1731 3.02976C38.2283 2.22094 38.9006 1.59329 39.7121 1.59329C40.5209 1.59329 41.1932 2.22093 41.2484 3.02976V9.14334C41.2773 9.56877 41.1276 9.98631 40.8361 10.2989C40.5446 10.6114 40.1375 10.7873 39.7121 10.7873C39.284 10.7873 38.877 10.6114 38.5855 10.2989C38.294 9.98635 38.1443 9.56883 38.1732 9.14334L38.1731 3.02976ZM10.8617 6.8875V9.14334C10.8224 9.94692 11.1165 10.7321 11.6706 11.3151C12.2247 11.8981 12.9942 12.229 13.8004 12.229C14.6066 12.229 15.376 11.8982 15.9301 11.3151C16.4842 10.7322 16.7784 9.94692 16.739 9.14334V6.88226C18.2726 8.12443 18.8556 10.2016 18.1965 12.0635C17.5373 13.9228 15.7752 15.1676 13.8004 15.1676C11.8255 15.1676 10.0634 13.9228 9.40425 12.0635C8.74509 10.2016 9.32809 8.12437 10.8617 6.88226V6.8875ZM12.2614 3.02976H12.2641C12.3166 2.22094 12.9889 1.59329 13.8004 1.59329C14.6119 1.59329 15.2841 2.22093 15.3367 3.02976V9.14334C15.3655 9.56877 15.2185 9.98631 14.927 10.2989C14.6355 10.6114 14.2258 10.7873 13.8004 10.7873C13.375 10.7873 12.9653 10.6114 12.6738 10.2989C12.3823 9.98635 12.2352 9.56883 12.2641 9.14334L12.2614 3.02976ZM2.02462 49.005V48.577C12.5788 45.0055 19.9584 48.4588 22.3322 49.8453C20.5412 51.119 19.0233 52.7367 17.8652 54.6064H7.6264C4.53283 54.6064 2.02462 52.0985 2.02462 49.005ZM19.5328 54.6065C22.7682 49.9924 28.971 47.0514 35.7435 47.0514C42.2431 47.0514 48.2224 49.7274 51.5287 54.0552V54.0526C50.775 54.415 49.9477 54.604 49.1126 54.6067L19.5328 54.6065ZM37.9789 30.0131C36.5056 28.876 34.7278 28.2116 32.8737 28.1013C33.6537 27.5051 34.5701 27.1191 35.5418 26.972C37.2724 26.8197 38.9873 27.3948 40.2741 28.5634C40.4343 28.6816 40.6312 28.7315 40.8282 28.7026C41.0225 28.6685 41.1932 28.5529 41.2983 28.3875C41.3954 28.2326 43.5961 24.9552 48.05 26.3838C46.5032 27.0061 44.4365 28.0723 43.9192 29.5009H43.9165C43.7852 29.8633 43.9691 30.2625 44.3288 30.3964C45.9492 31.0634 47.3541 32.1664 48.3835 33.5845C46.5767 32.752 43.7117 31.6648 41.4429 31.9327L41.4455 31.9301C38.9402 32.1454 36.5951 33.2537 34.8409 35.0551C35.1586 33.3534 36.2721 31.9064 37.8372 31.1685C38.0447 31.0608 38.1839 30.8613 38.2128 30.6302C38.239 30.4017 38.1524 30.1706 37.979 30.0183L37.9789 30.0131ZM41.4794 33.3325H41.5424C41.7735 33.5005 44.6859 35.8666 44.3445 47.2406C43.2915 46.8336 42.2095 46.5053 41.1092 46.2585C42.8108 39.2547 41.6685 34.8714 41.1092 33.3877C41.3613 33.3378 41.5083 33.3325 41.5136 33.3325L41.4794 33.3325ZM54.7153 49.0047C54.7048 50.6486 53.9721 52.2059 52.7116 53.2616C50.8759 50.8955 48.4888 49.0152 45.7575 47.7862C46.0857 39.1386 44.644 35.1809 43.4964 33.3873C45.5579 33.86 47.5406 34.6294 49.3789 35.6772C49.6205 35.819 49.9225 35.8032 50.1483 35.6378C50.3741 35.4723 50.4792 35.1861 50.4161 34.913C49.715 31.8668 46.9156 30.123 45.55 29.4297C46.4744 28.4502 48.7223 27.5311 50.143 27.1266C50.4187 27.0479 50.6209 26.8089 50.6498 26.5253C50.6787 26.239 50.529 25.9633 50.2743 25.832C44.9932 23.03 41.7027 25.7769 40.5471 27.0505C39.0712 25.9213 37.2225 25.3987 35.3737 25.5852C33.4672 25.9029 31.7471 26.9192 30.5469 28.4371C30.3788 28.6603 30.3605 28.9623 30.4996 29.2065C30.6414 29.4534 30.9172 29.5873 31.1982 29.5506C32.942 29.3273 34.7093 29.6661 36.2482 30.517C32.5637 33.1352 33.4461 37.5208 33.496 37.5208V37.5181C33.5616 37.8123 33.8059 38.0329 34.1052 38.0644H34.1814C34.4545 38.0618 34.7014 37.9016 34.8117 37.6521C35.8044 35.672 37.6006 34.2145 39.7434 33.6525C40.1426 34.6819 41.4662 38.8916 39.7434 45.9506C38.4225 45.73 37.0885 45.6197 35.7518 45.6223C31.4634 45.6013 27.2535 46.7673 23.5875 48.989C21.7939 47.7705 13.9369 43.2457 2.02481 47.0982V18.9464H54.7148L54.7153 49.0047ZM54.7153 17.5339H2.02529V11.5937C2.02792 8.41345 4.60672 5.83465 7.78956 5.83202H9.97447C7.99965 7.4576 7.25907 10.1467 8.12308 12.5522C8.9871 14.9577 11.2692 16.5649 13.8244 16.5649C16.3822 16.5649 18.6642 14.9578 19.5256 12.5522C20.3896 10.1467 19.6491 7.4576 17.6769 5.83202H35.8204C33.8482 7.4576 33.1076 10.1467 33.9716 12.5522C34.8356 14.9577 37.115 16.5649 39.6729 16.5649C42.2307 16.5649 44.5101 14.9578 45.3741 12.5522C46.2382 10.1467 45.4976 7.4576 43.5254 5.83202H48.9378C52.118 5.83465 54.6968 8.41345 54.702 11.5937L54.7153 17.5339Z" fill="#D2AE6D"/>
</svg>
