<svg width="20" height="20" viewBox="0 0 20 20" fill="none" xmlns="http://www.w3.org/2000/svg">
<path d="M15.5959 10.6333V9.08174H14.3959V10.8817C14.3959 11.0409 14.4592 11.1934 14.5717 11.3059L16.1959 12.9301V13.8817H2.9959V12.9301L4.6201 11.3059C4.73263 11.1934 4.79586 11.0409 4.7959 10.8817V8.48174C4.79433 7.63866 5.01526 6.81011 5.43638 6.07974C5.85749 5.34937 6.46388 4.74306 7.1943 4.32203C7.92472 3.90101 8.7533 3.68018 9.59637 3.68185C10.4394 3.68352 11.2672 3.90762 11.9959 4.33154V2.98934C11.4247 2.73649 10.8173 2.57531 10.1959 2.51174V1.28174H8.9959V2.51174C7.51664 2.6623 6.14575 3.35601 5.14832 4.45873C4.15089 5.56145 3.59776 6.99484 3.5959 8.48174V10.6333L1.9717 12.2575C1.85917 12.37 1.79593 12.5226 1.7959 12.6817V14.4817C1.7959 14.6409 1.85911 14.7935 1.97163 14.906C2.08416 15.0185 2.23677 15.0817 2.3959 15.0817H6.5959V15.6817C6.5959 16.4774 6.91197 17.2404 7.47458 17.8031C8.03719 18.3657 8.80025 18.6817 9.5959 18.6817C10.3915 18.6817 11.1546 18.3657 11.7172 17.8031C12.2798 17.2404 12.5959 16.4774 12.5959 15.6817V15.0817H16.7959C16.955 15.0817 17.1076 15.0185 17.2202 14.906C17.3327 14.7935 17.3959 14.6409 17.3959 14.4817V12.6817C17.3959 12.5226 17.3326 12.37 17.2201 12.2575L15.5959 10.6333ZM11.3959 15.6817C11.3959 16.1591 11.2063 16.617 10.8687 16.9545C10.5311 17.2921 10.0733 17.4817 9.5959 17.4817C9.11851 17.4817 8.66067 17.2921 8.32311 16.9545C7.98554 16.617 7.7959 16.1591 7.7959 15.6817V15.0817H11.3959V15.6817Z" fill="#FFC82F"/>
<path d="M15.5959 7.88154C16.9214 7.88154 17.9959 6.80703 17.9959 5.48154C17.9959 4.15606 16.9214 3.08154 15.5959 3.08154C14.2704 3.08154 13.1959 4.15606 13.1959 5.48154C13.1959 6.80703 14.2704 7.88154 15.5959 7.88154Z" fill="#FFC82F"/>
</svg>
