<svg width="37" height="37" viewBox="0 0 37 37" fill="none" xmlns="http://www.w3.org/2000/svg">
<path fill-rule="evenodd" clip-rule="evenodd" d="M12.4473 4.76532C12.4473 3.70445 12.8687 2.68704 13.6188 1.93689C14.369 1.18675 15.3864 0.76532 16.4473 0.76532H20.4473C21.5081 0.76532 22.5255 1.18675 23.2757 1.93689C24.0258 2.68704 24.4473 3.70445 24.4473 4.76532V12.7653H32.4473C33.5081 12.7653 34.5255 13.1867 35.2757 13.9369C36.0258 14.687 36.4473 15.7045 36.4473 16.7653V20.7653C36.4473 21.8262 36.0258 22.8436 35.2757 23.5937C34.5255 24.3439 33.5081 24.7653 32.4473 24.7653H24.4473V32.7653C24.4473 33.8262 24.0258 34.8436 23.2757 35.5937C22.5255 36.3439 21.5081 36.7653 20.4473 36.7653H16.4473C15.3864 36.7653 14.369 36.3439 13.6188 35.5937C12.8687 34.8436 12.4473 33.8262 12.4473 32.7653V24.7653H4.44727C3.3864 24.7653 2.36898 24.3439 1.61884 23.5937C0.868693 22.8436 0.447266 21.8262 0.447266 20.7653V16.7653C0.447266 15.7045 0.868693 14.687 1.61884 13.9369C2.36898 13.1867 3.3864 12.7653 4.44727 12.7653H12.4473V4.76532Z" fill="white"/>
</svg>
