<svg width="37" height="42" viewBox="0 0 37 42" fill="none" xmlns="http://www.w3.org/2000/svg">
<path d="M22.1583 5.39555C22.1583 8.02757 20.3913 10.1623 18.2109 10.1623C16.0305 10.1623 14.262 8.02752 14.262 5.39555C14.262 2.76161 16.0305 0.628769 18.2109 0.628769C20.3913 0.628769 22.1583 2.76161 22.1583 5.39555Z" fill="#D2AE6D"/>
<path d="M20.6047 15.2248C20.6047 15.2248 21.2774 14.979 21.612 14.8312C21.5283 14.2898 21.151 12.2261 21.0657 11.7845C20.9393 11.7845 20.8983 11.7845 20.772 11.7346C20.6457 12.276 19.2593 18.2716 18.7983 20.3352C19.722 19.2544 20.982 17.828 21.2347 17.5822C21.0247 17.1887 20.3947 15.8621 20.3947 15.8621C20.1847 15.6183 20.352 15.2728 20.6047 15.2248Z" fill="#D2AE6D"/>
<path d="M20.1011 11.4887C19.4711 11.3908 18.7985 11.3908 18.1275 11.3908C17.4548 11.3908 16.7838 11.3908 16.1538 11.4887L18.1275 20.187L20.1011 11.4887Z" fill="#D2AE6D"/>
<path d="M14.3884 17.8777C14.3047 17.7798 14.2621 17.4361 14.3047 17.3862C14.3047 17.3862 14.8084 16.3534 15.061 15.8139C14.6821 15.6661 14.1784 15.4703 14.1784 15.4703C13.9257 15.4204 13.8847 15.3225 13.9257 14.9788L14.513 11.6365C12.6657 12.1779 10.9857 13.2088 9.97663 14.9788C8.67396 17.2403 6.78396 20.3348 6.78396 20.3348C6.78396 20.3348 5.39762 17.6817 4.30663 15.8137C3.17296 13.798 1.99663 13.9957 1.15663 14.683C0.106629 15.4701 0.106629 17.2382 0.652965 18.2211C1.87029 20.5805 3.80297 24.2666 4.81029 25.7409C5.65029 27.0195 7.79296 27.0195 8.71663 25.691C10.0193 23.8231 11.4466 20.9243 11.4466 20.9722L11.4893 33.6524H15.522V34.4875H11.4893V41.6638H17.7057V21.8098L14.3884 17.8777Z" fill="#D2AE6D"/>
<path d="M36.3954 21.5636C36.3527 21.3678 36.1017 20.4329 35.639 18.7128C36.479 17.0426 36.269 15.6661 35.0927 14.7811C34.8401 14.5853 34.63 14.4374 34.42 14.3875C33.0764 9.52285 31.48 3.96904 31.4374 3.82111C31.27 3.32965 30.7647 3.37957 30.7647 3.37957C30.7647 3.37957 28.622 4.21466 28.4974 4.26459C28.371 4.3145 28.371 4.56023 28.54 4.51032C28.96 4.3625 30.3464 3.82306 30.3464 3.82306L30.5564 4.51032L28.75 5.19758C28.7074 5.19758 28.6664 5.29549 28.7074 5.3454C28.7074 5.39531 28.791 5.44331 28.8337 5.39531L30.64 4.70805L30.85 5.39531L29.0437 6.08257C29.001 6.08257 28.96 6.18048 29.001 6.23039C29.001 6.28031 29.0847 6.3283 29.1274 6.28031L30.9337 5.59305L31.1437 6.28031L29.3374 6.96757C29.298 6.96757 29.2553 7.06547 29.298 7.11539C29.298 7.1653 29.3817 7.2133 29.4243 7.1653L31.2307 6.47804L31.4407 7.1653L29.6343 7.85256C29.5917 7.85256 29.5506 7.95047 29.5917 8.00038C29.5917 8.05029 29.6753 8.09829 29.718 8.05029L31.5243 7.36303L31.7343 8.05029L29.928 8.73755C29.8853 8.73755 29.8443 8.83546 29.8853 8.88537C29.8853 8.93529 29.969 8.98328 30.0117 8.93529L31.818 8.24803L32.028 8.93529L30.2217 9.62254C30.179 9.62254 30.138 9.72045 30.179 9.77037C30.179 9.82028 30.2627 9.86827 30.3053 9.82028L32.1117 9.13302L32.3217 9.82028L30.5153 10.5075C30.4727 10.5075 30.4317 10.6054 30.4727 10.6554C30.4727 10.7053 30.5564 10.7533 30.599 10.7053L32.4053 10.018L32.6153 10.7053C32.6153 10.7053 30.978 11.3446 30.809 11.4425C30.6417 11.4924 30.7253 11.6882 30.8927 11.6882C31.1864 11.6882 32.53 11.7381 32.53 11.7381C32.53 11.7381 32.9074 11.7381 33.1173 12.1317C33.2437 12.5252 33.4947 13.3104 33.8737 14.3432C33.2437 14.589 32.74 15.2762 32.361 15.8675C31.311 17.7355 29.7983 20.3406 29.7983 20.3406C29.7983 20.3406 28.4547 18.0791 26.6057 14.9847C25.472 13.1167 23.4983 12.1838 21.7328 11.6923L22.3201 14.9367C22.3628 15.1325 22.2365 15.3783 22.0675 15.4282C22.0675 15.4282 21.5638 15.624 21.1848 15.7718C21.4375 16.3132 21.9412 17.3441 21.9412 17.3441C22.0248 17.4919 21.9412 17.7377 21.8575 17.8356L18.4138 21.7673V41.6714H24.9238L24.9304 34.5393H20.8567V33.7042H24.9304V20.9263C24.9304 20.8764 26.6104 23.6792 27.7867 25.6451C28.8794 27.4151 30.6004 27.3153 31.4831 25.9407C32.3657 24.5642 34.1704 21.3697 35.4304 19.0101C35.8504 20.2388 36.1867 21.2716 36.3131 21.5653C36.1441 22.1048 36.4807 21.9572 36.3954 21.5636Z" fill="#D2AE6D"/>
<path d="M15.0182 17.6319C15.2709 17.9276 16.5309 19.3521 17.4545 20.3849C16.9919 18.3212 15.6072 12.3736 15.4809 11.7843C15.3545 11.7843 15.3135 11.8343 15.1872 11.8343C15.1035 12.2758 14.7245 14.3415 14.6409 14.8809C14.9756 15.0268 15.6482 15.2726 15.6482 15.2726C15.9009 15.3705 15.9845 15.7141 15.8582 15.8619C15.8582 15.9118 15.1855 17.2384 15.0182 17.6319Z" fill="#D2AE6D"/>
<path d="M7.62544 2.64238C7.70911 2.39665 7.2481 2.00308 7.12178 2.39665C6.99545 2.74028 4.18178 9.57296 3.97178 10.0644L2.50178 11.6866C2.33443 11.5887 2.12443 11.4908 1.91445 11.4908C1.32712 11.4908 0.821777 12.0802 0.821777 12.7694C0.821777 13.4567 1.32544 14.048 1.91445 14.048C2.50178 14.048 3.00712 13.4586 3.00712 12.7694C3.00712 12.4738 2.92345 12.228 2.79712 12.0322L4.22445 10.41L4.4771 10.6557L4.51976 12.8673C4.05709 13.0151 3.67976 13.5066 3.67976 14.096C3.67976 14.6373 3.97343 15.0789 4.35243 15.2747C4.35243 15.864 4.6461 16.4054 5.19243 16.6512C5.31876 16.7011 5.44509 16.6512 5.4861 16.5033C5.52876 16.3555 5.4861 16.2077 5.35978 16.1597C4.85611 15.914 4.77245 15.6183 4.77245 15.3726C5.35978 15.3726 5.86512 14.7832 5.86512 14.094C5.86512 13.4547 5.44512 12.9153 4.89878 12.8154L4.94144 10.7517C5.35816 9.47499 7.54178 2.88811 7.62544 2.64238ZM1.95544 13.5523C1.5781 13.5523 1.28277 13.2087 1.28277 12.7652C1.28277 12.3236 1.57644 11.9781 1.95544 11.9781C2.33279 11.9781 2.62811 12.3217 2.62811 12.7652C2.62811 13.2087 2.33444 13.5523 1.95544 13.5523ZM5.44178 14.0937C5.44178 14.5353 5.14811 14.8808 4.76911 14.8808C4.39176 14.8808 4.09807 14.5353 4.09807 14.0937C4.09807 13.6521 4.39174 13.3066 4.77074 13.3066C5.14809 13.3066 5.44178 13.6521 5.44178 14.0937Z" fill="#D2AE6D"/>
</svg>
