<svg width="61" height="98" viewBox="0 0 61 98" fill="none" xmlns="http://www.w3.org/2000/svg">
<path d="M37.197 8.89251C37.197 13.2792 34.2521 16.8371 30.6181 16.8371C26.9841 16.8371 24.0365 13.2791 24.0365 8.89251C24.0365 4.50262 26.9841 0.947884 30.6181 0.947884C34.2521 0.947884 37.197 4.50262 37.197 8.89251Z" fill="#D2AE6D"/>
<path d="M34.6077 25.2745C34.6077 25.2745 35.7289 24.865 36.2866 24.6186C36.1472 23.7163 35.5182 20.2767 35.3761 19.5409C35.1655 19.5409 35.0972 19.5408 34.8866 19.4577C34.6761 20.36 32.3655 30.3525 31.5972 33.7919C33.1366 31.9906 35.2366 29.6132 35.6577 29.2037C35.3077 28.5477 34.2577 26.3368 34.2577 26.3368C33.9077 25.9305 34.1866 25.3546 34.6077 25.2745Z" fill="#D2AE6D"/>
<path d="M33.7684 19.0477C32.7184 18.8846 31.5973 18.8846 30.479 18.8846C29.3578 18.8846 28.2395 18.8846 27.1895 19.0477L30.479 33.545L33.7684 19.0477Z" fill="#D2AE6D"/>
<path d="M24.247 29.6961C24.1076 29.5329 24.0365 28.9601 24.1076 28.877C24.1076 28.877 24.947 27.1555 25.3681 26.2565C24.7365 26.0101 23.897 25.6838 23.897 25.6838C23.4759 25.6006 23.4076 25.4374 23.4759 24.8647L24.4548 19.2941C21.3759 20.1964 18.5759 21.9146 16.8941 24.8647C14.723 28.6338 11.573 33.7912 11.573 33.7912C11.573 33.7912 9.26241 29.3694 7.44409 26.2561C5.55465 22.8965 3.59409 23.2261 2.19409 24.3716C0.444092 25.6834 0.444092 28.6302 1.35465 30.2684C3.38353 34.2008 6.60465 40.3442 8.28353 42.8015C9.68353 44.9325 13.2547 44.9325 14.7941 42.7183C16.9652 39.6051 19.3441 34.7737 19.3441 34.8536L19.4152 55.9873H26.1363V57.3791H19.4152V69.3396H29.7759V36.2495L24.247 29.6961Z" fill="#D2AE6D"/>
<path d="M60.9256 35.8393C60.8545 35.513 60.4362 33.9547 59.6651 31.0879C61.0651 28.3042 60.7151 26.0101 58.7545 24.5351C58.3334 24.2087 57.9834 23.9623 57.6334 23.8791C55.394 15.7713 52.7334 6.51501 52.6623 6.26846C52.3834 5.44936 51.5412 5.53255 51.5412 5.53255C51.5412 5.53255 47.97 6.92436 47.7623 7.00758C47.5517 7.09077 47.5517 7.50032 47.8334 7.41713C48.5334 7.17077 50.8439 6.2717 50.8439 6.2717L51.1939 7.41713L48.1834 8.56257C48.1123 8.56257 48.0439 8.72575 48.1123 8.80893C48.1123 8.89212 48.2517 8.97212 48.3228 8.89212L51.3334 7.74669L51.6834 8.89212L48.6728 10.0376C48.6017 10.0376 48.5334 10.2007 48.6017 10.2839C48.6017 10.3671 48.7412 10.4471 48.8123 10.3671L51.8228 9.22168L52.1728 10.3671L49.1623 11.5125C49.0966 11.5125 49.0256 11.6757 49.0966 11.7589C49.0966 11.8421 49.2361 11.9221 49.3072 11.8421L52.3178 10.6967L52.6678 11.8421L49.6572 12.9875C49.5861 12.9875 49.5177 13.1507 49.5861 13.2339C49.5861 13.3171 49.7256 13.3971 49.7966 13.3171L52.8072 12.1717L53.1572 13.3171L50.1466 14.4625C50.0756 14.4625 50.0072 14.6257 50.0756 14.7089C50.0756 14.7921 50.215 14.8721 50.2861 14.7921L53.2967 13.6466L53.6467 14.7921L50.6361 15.9375C50.565 15.9375 50.4966 16.1007 50.565 16.1839C50.565 16.2671 50.7045 16.3471 50.7756 16.2671L53.7861 15.1216L54.1361 16.2671L51.1256 17.4125C51.0545 17.4125 50.9861 17.5757 51.0545 17.6589C51.0545 17.7421 51.1939 17.8221 51.265 17.7421L54.2756 16.5966L54.6256 17.7421C54.6256 17.7421 51.8967 18.8075 51.615 18.9707C51.3361 19.0539 51.4756 19.3803 51.7545 19.3803C52.2439 19.3803 54.4833 19.4634 54.4833 19.4634C54.4833 19.4634 55.1123 19.4634 55.4622 20.1194C55.6728 20.7753 56.0911 22.0839 56.7228 23.8053C55.6728 24.2149 54.8333 25.3603 54.2017 26.3458C52.4517 29.4591 49.9305 33.801 49.9305 33.801C49.9305 33.801 47.6911 30.0318 44.6094 24.8744C42.72 21.7612 39.4305 20.2062 36.488 19.3871L37.4669 24.7945C37.538 25.1208 37.3275 25.5304 37.0458 25.6136C37.0458 25.6136 36.2064 25.9399 35.5747 26.1863C35.9958 27.0886 36.8353 28.8068 36.8353 28.8068C36.9747 29.0531 36.8353 29.4627 36.6958 29.6259L30.9564 36.1787V69.3523H41.8064L41.8173 57.4655H35.0279V56.0737H41.8173V34.777C41.8173 34.6939 44.6173 39.3653 46.5779 42.6417C48.399 45.5918 51.2673 45.4254 52.7384 43.1345C54.2095 40.8403 57.2173 35.5162 59.3173 31.5835C60.0173 33.6313 60.5779 35.3527 60.7884 35.8422C60.5068 36.7413 61.0678 36.4952 60.9256 35.8393Z" fill="#D2AE6D"/>
<path d="M25.297 29.2865C25.7181 29.7792 27.8182 32.1534 29.3576 33.8748C28.5865 30.4352 26.2787 20.5226 26.0682 19.5405C25.8576 19.5405 25.7893 19.6237 25.5787 19.6237C25.4393 20.3596 24.8076 23.8024 24.6682 24.7015C25.226 24.9446 26.347 25.3542 26.347 25.3542C26.7681 25.5174 26.9076 26.0901 26.697 26.3365C26.697 26.4197 25.5759 28.6306 25.297 29.2865Z" fill="#D2AE6D"/>
<path d="M12.9756 4.3039C13.1151 3.89435 12.3467 3.23842 12.1362 3.89435C11.9256 4.46709 7.23617 15.8549 6.88617 16.674L4.43617 19.3777C4.15726 19.2145 3.80726 19.0513 3.45729 19.0513C2.47841 19.0513 1.63617 20.0336 1.63617 21.1823C1.63617 22.3277 2.47561 23.3133 3.45729 23.3133C4.43617 23.3133 5.27841 22.331 5.27841 21.1823C5.27841 20.6895 5.13896 20.28 4.92841 19.9536L7.30729 17.2499L7.72838 17.6595L7.79947 21.3454C7.02835 21.5918 6.39947 22.4109 6.39947 23.3932C6.39947 24.2955 6.88893 25.0314 7.52059 25.3577C7.52059 26.34 8.01005 27.2423 8.92059 27.6519C9.13114 27.7351 9.34169 27.6519 9.41005 27.4055C9.48114 27.1591 9.41005 26.9128 9.1995 26.8328C8.36006 26.4232 8.22062 25.9304 8.22062 25.5209C9.1995 25.5209 10.0417 24.5386 10.0417 23.3899C10.0417 22.3244 9.34174 21.4254 8.43118 21.2589L8.50227 17.8194C9.19681 15.6916 12.8362 4.71345 12.9756 4.3039ZM3.52561 22.4871C2.8967 22.4871 2.40449 21.9144 2.40449 21.1753C2.40449 20.4394 2.89394 19.8634 3.52561 19.8634C4.15452 19.8634 4.64673 20.4361 4.64673 21.1753C4.64673 21.9144 4.15728 22.4871 3.52561 22.4871ZM9.33617 23.3895C9.33617 24.1254 8.84672 24.7013 8.21505 24.7013C7.58614 24.7013 7.09666 24.1254 7.09666 23.3895C7.09666 22.6535 7.58611 22.0776 8.21778 22.0776C8.84669 22.0776 9.33617 22.6535 9.33617 23.3895Z" fill="#D2AE6D"/>
<path d="M18.0118 91.5164C17.3337 91.5164 16.3274 91.3632 14.9931 91.057C14.9274 90.7945 14.8618 90.4828 14.7962 90.1218C14.7415 89.75 14.6923 89.4 14.6485 89.0718C14.6157 88.7437 14.5993 88.5195 14.5993 88.3992C14.6212 88.3117 14.7087 88.2679 14.8618 88.2679C15.1462 88.2679 15.3048 88.3117 15.3376 88.3992C15.3813 88.596 15.4579 88.8148 15.5673 89.0554C15.6766 89.2851 15.8298 89.5312 16.0266 89.7937C16.2126 90.0671 16.4641 90.2914 16.7813 90.4664C17.1095 90.6304 17.4759 90.7125 17.8806 90.7125C18.3946 90.7125 18.8212 90.5593 19.1602 90.2531C19.4993 89.9468 19.6688 89.4875 19.6688 88.875C19.6688 88.4375 19.5376 88.0984 19.2751 87.8578C19.0235 87.6062 18.7501 87.3765 18.4548 87.1687C18.3782 87.125 18.2579 87.0539 18.0938 86.9554C17.9298 86.857 17.7657 86.7585 17.6016 86.6601C17.4485 86.5507 17.3282 86.4742 17.2407 86.4304C17.0329 86.2992 16.8579 86.1898 16.7157 86.1023C16.5845 86.0148 16.4587 85.9273 16.3384 85.8398C16.2181 85.7414 16.0704 85.621 15.8954 85.4789C15.5454 85.1945 15.272 84.8718 15.0751 84.5109C14.8891 84.15 14.7962 83.7507 14.7962 83.3132C14.7962 82.7664 14.9548 82.2742 15.272 81.8367C15.6001 81.3882 16.0212 81.0382 16.5352 80.7867C17.0493 80.5242 17.5907 80.3929 18.1595 80.3929C18.4657 80.3929 18.7337 80.4093 18.9634 80.4421C19.1931 80.475 19.3681 80.5078 19.4884 80.5406C19.6087 80.5734 19.7563 80.6117 19.9313 80.6554C20.1063 80.6992 20.3852 80.7648 20.7681 80.8523C20.8993 81.5851 20.9649 82.4273 20.9649 83.3789C20.954 83.4773 20.8884 83.5265 20.7681 83.5265C20.4727 83.5265 20.3141 83.4773 20.2923 83.3789C20.2485 83.0398 20.1282 82.7062 19.9313 82.3781C19.7345 82.039 19.4774 81.7546 19.1602 81.525C18.854 81.2953 18.504 81.1804 18.1102 81.1804C17.6071 81.1804 17.2188 81.3226 16.9454 81.607C16.6829 81.8914 16.5516 82.2742 16.5516 82.7554C16.5516 83.0617 16.6063 83.3023 16.7157 83.4773C16.8251 83.6414 16.9673 83.8218 17.1423 84.0187C17.2626 84.15 17.4595 84.314 17.7329 84.5109C18.0063 84.7078 18.3126 84.9156 18.6516 85.1343C18.9907 85.3421 19.3188 85.539 19.636 85.725C20.2376 86.075 20.7024 86.4578 21.0306 86.8734C21.3587 87.2781 21.5227 87.8195 21.5227 88.4976C21.5227 89.0773 21.3587 89.5968 21.0306 90.0562C20.7024 90.5156 20.2704 90.8765 19.7345 91.139C19.2095 91.3906 18.6352 91.5164 18.0118 91.5164ZM25.5423 91.4671C24.9735 91.4671 24.4868 91.2867 24.0821 90.9257C23.6884 90.5539 23.4915 89.9851 23.4915 89.2195V85.2492H22.4907C22.4141 85.2492 22.3759 85.107 22.3759 84.8226C22.3759 84.7351 22.3813 84.6859 22.3923 84.675C22.611 84.5765 22.8243 84.4562 23.0321 84.314C23.2399 84.1609 23.4477 83.9914 23.6556 83.8054C23.9727 83.4882 24.2298 83.2148 24.4266 82.9851C24.6235 82.7445 24.722 82.6242 24.722 82.6242C24.7766 82.6242 24.8313 82.6296 24.886 82.6406C24.9407 82.6406 24.9899 82.646 25.0337 82.657C25.1321 82.6898 25.1813 82.7226 25.1813 82.7554V84.3632H26.379C26.6306 84.3632 26.822 84.3687 26.9532 84.3796C27.0954 84.3796 27.172 84.3796 27.1829 84.3796C27.2704 84.3796 27.3141 84.4289 27.3141 84.5273C27.3141 84.8007 27.2595 85.0414 27.1501 85.2492H25.1813V89.2031C25.1813 89.6406 25.2743 89.9742 25.4602 90.2039C25.6462 90.4335 25.9032 90.5484 26.2313 90.5484C26.461 90.5484 26.6743 90.5046 26.8712 90.4171C27.0681 90.3187 27.1774 90.2695 27.1993 90.2695C27.2431 90.2585 27.2923 90.3078 27.347 90.4171C27.4016 90.5265 27.4235 90.5976 27.4126 90.6304C27.3688 90.7289 27.2431 90.8437 27.0352 90.975C26.8384 91.1062 26.6032 91.221 26.3298 91.3195C26.0673 91.4179 25.8048 91.4671 25.5423 91.4671ZM30.1524 91.4671C29.6056 91.4671 29.1571 91.3195 28.8071 91.0242C28.4681 90.7179 28.2985 90.3023 28.2985 89.7773C28.2985 89.4164 28.4134 89.0882 28.6431 88.7929C28.8837 88.4976 29.2173 88.246 29.6438 88.0382C29.797 87.9617 29.9337 87.9015 30.054 87.8578C30.1852 87.8031 30.3056 87.7539 30.4149 87.7101C30.7977 87.5898 31.1149 87.4914 31.3665 87.4148C31.629 87.3382 31.8149 87.2835 31.9243 87.2507C32.0227 87.196 32.072 87.1085 32.072 86.9882V86.0859C32.072 85.7031 31.9845 85.4023 31.8095 85.1835C31.6345 84.9648 31.3993 84.8554 31.104 84.8554C30.7759 84.8554 30.5188 84.9593 30.3329 85.1671C30.147 85.364 30.054 85.6484 30.054 86.0203C30.054 86.239 29.972 86.4031 29.8079 86.5125C29.6438 86.6109 29.4579 86.6601 29.2501 86.6601C28.8454 86.6601 28.561 86.5289 28.397 86.2664C28.397 86.0039 28.4954 85.7468 28.6923 85.4953C28.8891 85.2328 29.1462 84.9976 29.4634 84.7898C29.7915 84.582 30.1524 84.4179 30.5462 84.2976C30.9399 84.1664 31.3337 84.1007 31.7274 84.1007C32.4056 84.1007 32.9141 84.2812 33.2532 84.6421C33.5923 84.9921 33.7618 85.5992 33.7618 86.4632V89.6953C33.7618 90.1437 33.9423 90.3679 34.3032 90.3679C34.4673 90.3679 34.6532 90.2968 34.861 90.1546C34.9266 90.1656 34.9595 90.2257 34.9595 90.3351C34.9595 90.5429 34.9266 90.707 34.861 90.8273C34.697 90.9585 34.4782 91.0953 34.2048 91.2375C33.9313 91.3796 33.6688 91.4507 33.4173 91.4507C33.1657 91.4507 32.9196 91.3578 32.679 91.1718C32.4384 90.9859 32.2798 90.7835 32.2032 90.5648C32.1157 90.6414 32.0501 90.696 32.0063 90.7289C31.9626 90.7617 31.8915 90.8164 31.7931 90.8929C31.5634 91.046 31.3118 91.1828 31.0384 91.3031C30.7649 91.4125 30.4696 91.4671 30.1524 91.4671ZM30.9891 90.4007C31.2845 90.4007 31.536 90.3242 31.7438 90.171C31.9626 90.0179 32.072 89.8429 32.072 89.646V87.9726L31.022 88.3335C30.7704 88.4429 30.5462 88.5742 30.3493 88.7273C30.1524 88.8804 30.054 89.0992 30.054 89.3835C30.054 89.7335 30.1415 89.9906 30.3165 90.1546C30.4915 90.3187 30.7157 90.4007 30.9891 90.4007ZM35.747 91.4015C35.7032 91.3578 35.6813 91.2539 35.6813 91.0898C35.6813 90.9367 35.7032 90.8601 35.747 90.8601C35.8345 90.8601 35.9493 90.8382 36.0915 90.7945C36.2337 90.7507 36.3649 90.696 36.4852 90.6304C36.6165 90.5648 36.6876 90.5101 36.6985 90.4664C36.7423 90.2804 36.7751 90.0835 36.797 89.8757C36.8188 89.6679 36.8298 89.4601 36.8298 89.2523V85.3804C36.8298 85.3039 36.8079 85.2656 36.7641 85.2656H35.8782C35.8563 85.2656 35.8454 85.2328 35.8454 85.1671C35.8454 85.0906 35.8563 84.9921 35.8782 84.8718C35.911 84.7515 35.9438 84.6421 35.9766 84.5437C36.0204 84.4453 36.0532 84.396 36.0751 84.396H36.7641C36.8079 84.396 36.8298 84.3632 36.8298 84.2976V84.1335C36.8298 83.5757 36.9337 83.0617 37.1415 82.5914C37.3602 82.1101 37.6446 81.689 37.9946 81.3281C38.3556 80.9562 38.7493 80.6718 39.1759 80.475C39.6134 80.2671 40.0563 80.1632 40.5048 80.1632C41.0188 80.1632 41.4891 80.2562 41.9157 80.4421C42.3532 80.6281 42.6759 80.8359 42.8837 81.0656C43.1681 80.7265 43.5399 80.4531 43.9993 80.2453C44.4587 80.0375 44.8907 79.9335 45.2954 79.9335C46.1923 79.9335 46.761 80.1359 47.0016 80.5406C47.1001 81.4156 46.8813 81.8531 46.3454 81.8531C46.2032 81.8531 46.072 81.8039 45.9516 81.7054C45.8313 81.596 45.711 81.4703 45.5907 81.3281C45.4813 81.1859 45.361 81.0601 45.2298 80.9507C45.0985 80.8414 44.9454 80.7812 44.7704 80.7703C44.486 80.7484 44.2345 80.8742 44.0157 81.1476C43.8079 81.4101 43.6438 81.7546 43.5235 82.1812C43.4141 82.6078 43.3595 83.0671 43.3595 83.5593V84.314C43.3595 84.3687 43.3868 84.396 43.4415 84.396H45.2626C45.3173 84.396 45.3446 84.4343 45.3446 84.5109C45.3446 84.7515 45.279 85.0031 45.1477 85.2656H43.4579C43.3923 85.2656 43.3595 85.2984 43.3595 85.364V88.9898C43.3595 89.6789 43.3977 90.171 43.4743 90.4664C43.4962 90.5101 43.5673 90.5648 43.6876 90.6304C43.8079 90.696 43.9391 90.7507 44.0813 90.7945C44.2235 90.8382 44.322 90.8601 44.3766 90.8601C44.4095 90.8601 44.4259 90.9367 44.4259 91.0898C44.4368 91.2429 44.4313 91.3468 44.4095 91.4015C44.0704 91.3796 43.7259 91.3578 43.3759 91.3359C43.0259 91.314 42.736 91.3031 42.5063 91.3031C42.1673 91.3031 41.8173 91.314 41.4563 91.3359C41.1063 91.3578 40.811 91.3796 40.5704 91.4015C40.5266 91.3578 40.5048 91.2539 40.5048 91.0898C40.5048 90.9367 40.5266 90.8601 40.5704 90.8601C40.6579 90.8601 40.7727 90.8382 40.9149 90.7945C41.0571 90.7507 41.1884 90.696 41.3087 90.6304C41.4399 90.5648 41.511 90.5101 41.522 90.4664C41.5657 90.2804 41.5985 90.0835 41.6204 89.8757C41.6423 89.6679 41.6532 89.4601 41.6532 89.2523L41.6696 85.3804C41.6696 85.3039 41.6423 85.2656 41.5876 85.2656H38.6345C38.5688 85.2656 38.536 85.2984 38.536 85.364V88.9898C38.536 89.6789 38.5743 90.171 38.6509 90.4664C38.6727 90.5101 38.7438 90.5648 38.8641 90.6304C38.9845 90.696 39.1157 90.7507 39.2579 90.7945C39.4001 90.8382 39.4985 90.8601 39.5532 90.8601C39.586 90.8601 39.6024 90.9367 39.6024 91.0898C39.6134 91.2429 39.6079 91.3468 39.586 91.4015C39.247 91.3796 38.9024 91.3578 38.5524 91.3359C38.2024 91.314 37.9126 91.3031 37.6829 91.3031C37.3438 91.3031 36.9938 91.314 36.6329 91.3359C36.2829 91.3578 35.9876 91.3796 35.747 91.4015ZM38.6016 84.396H41.5876C41.6423 84.396 41.6696 84.3632 41.6696 84.2976C41.6696 83.9914 41.6806 83.7234 41.7024 83.4937C41.7352 83.264 41.7681 83.0835 41.8009 82.9523C41.8337 82.7992 41.8501 82.6789 41.8501 82.5914C41.8501 82.4164 41.7845 82.2085 41.6532 81.9679C41.522 81.7273 41.4181 81.5687 41.3415 81.4921C41.2212 81.3609 41.0626 81.246 40.8657 81.1476C40.6798 81.0492 40.461 81 40.2095 81C39.6298 81 39.2032 81.2406 38.9298 81.7218C38.6673 82.2031 38.536 82.8156 38.536 83.5593V84.314C38.536 84.3687 38.5579 84.396 38.6016 84.396Z" fill="#D2AE6D"/>
</svg>
